<?xml version="1.0" encoding="utf-8"?>
<!-- Generator: Adobe Illustrator 18.0.0, SVG Export Plug-In . SVG Version: 6.00 Build 0)  -->
<!DOCTYPE svg PUBLIC "-//W3C//DTD SVG 1.1//EN" "http://www.w3.org/Graphics/SVG/1.1/DTD/svg11.dtd">
<svg version="1.1" xmlns="http://www.w3.org/2000/svg" xmlns:xlink="http://www.w3.org/1999/xlink" x="0px" y="0px"
	 viewBox="0 0 550 550" enable-background="new 0 0 550 550" xml:space="preserve">
<g id="Layer_3">
	<g id="Layer_1">
		
			<text transform="matrix(0.8408 0 0 1 152.3061 147.6806)" fill="#DE3A51" stroke="#DE3A51" stroke-width="4" font-family="'Herculanum'" font-size="184.6898">AH</text>
	</g>
</g>
<g id="Layer_5">
	<g>
		<g>
			<path fill="#B4E2F2" d="M373.6,107.9c7.4,15.9,16,33.3,32.7,41.1c17.3,8.1,36.6,2.9,45.8-14.3c8-14.9,7.7-37-6.9-47.8
				c-13.7-10.2-36.7,1.2-34.8,18.9c0.6,5.4,4.1,10,10,10c5,0,10.6-4.6,10-10c-0.2-1.9,0.6-2.6-0.5-1.2c0.9-1.1,0.8-1.1,2.2-1.5
				c0.8-0.3,2.2,0.3,1-0.3c1.6,0.7,2.4,2.4,3.1,4c3.5,7-0.1,18-5.1,23.2c-5.8,6-16,2.4-21.5-2.2c-9.1-7.6-14-19.4-18.8-29.9
				c-2.3-4.9-9.3-6.1-13.7-3.6C372.2,97.2,371.4,103,373.6,107.9L373.6,107.9z"/>
		</g>
	</g>
	<g>
		<g>
			<path fill="#B4E2F2" d="M126,90.9c-0.8,11.1-1.4,22.7-6.3,32.9c-3.4,7.1-10.9,15-19.5,12.7c-8.4-2.3-13-13.3-12.5-21.2
				c0-0.8,1.7-3.4,1.2-2.9c-0.7,0.4-0.6,0.2,0.5-0.4c2.1-1.3-0.9,0.1,1.5-0.5c-0.9,0.1-0.8,0.1,0.4,0.1c2.7-0.1-1.2-0.4,1.3,0.3
				c-0.6-0.2-1.8-1.4-0.3,0c-0.5-0.5-0.8-2-0.3,0.1c3.1,12.5,22.4,7.2,19.3-5.3c-4.2-16.6-25.1-19.2-36.5-8.6
				c-14.2,13.2-5.7,37.2,5.8,48.9c13.9,14.1,34,11.5,47.6-1.3c14.7-13.9,16.5-36,17.8-55c0.4-5.4-4.8-10-10-10
				C130.3,80.9,126.4,85.5,126,90.9L126,90.9z"/>
		</g>
	</g>
	<g>
		<g>
			<path fill="#B6E3F1" d="M130.4,62.4c-5.9-6.2-13.6-10.6-22.1-12.3c-9.9-1.9-20.1,0.2-29.8,2.4c-17.9,4-33.6,13.6-42,30.2
				c-16.4,32.3,1.3,70,32.4,85.4c11.5,5.7,21.7-11.6,10.1-17.3c-21.4-10.6-34.4-33-25.9-56.4c4.2-11.5,14.5-18,25.7-21.4
				c12.6-3.8,27.4-7.2,37.5,3.4C125.2,85.9,139.3,71.7,130.4,62.4L130.4,62.4z"/>
		</g>
	</g>
	<g>
		<g>
			<path fill="#B6E3F1" d="M404.9,77.5c9.8-10.4,23.4-7.1,35.8-3.9c12.5,3.2,21.8,9.8,27.3,21.5c10.6,22.6-5.7,46.8-25.8,56.7
				c-11.6,5.7-1.4,23,10.1,17.3c14.5-7.2,26.7-19.2,33.3-34.1c7.3-16.4,6.7-33.7-0.3-50c-7.4-17-23.6-26.7-41-31.2
				c-19-4.9-39-5.8-53.6,9.5C381.9,72.7,396,86.9,404.9,77.5L404.9,77.5z"/>
		</g>
	</g>
	<rect x="261" y="467" fill="none" width="52" height="7"/>
	<g>
		<g>
			<path fill="#DE3A51" d="M60,406.9c-1,0.3-1.8,0.2-2.4-0.3c-0.6-0.6-1-1.6-1.1-3c-0.1-1.1-0.1-2.1,0.1-3.1
				c-2.1-0.9-3.5-1.5-4.2-1.9c-1.7-0.9-3-1.8-3.8-2.6c-1.4-1.4-1.6-2.7-0.5-3.8c1.7-1.7,4.6-2,8.4-1c1.3,0.3,2.8,0.9,4.7,1.7
				c2.3,0.9,3.7,1.7,4.4,2.3c0.5,0.4,0.8,1.1,0.8,1.9c0.1,0.8-0.1,1.4-0.4,1.8c-0.7,0.8-2,1.5-4,2c-2,0.5-3,0.9-3.2,1.1
				c-0.6,0.7-0.9,1.3-0.9,1.8C58,404.4,58.7,405.3,60,406.9z M65.5,398.7c0.5-0.5,0.1-1.3-1-2.3c-1.6-1.5-3.3-2.5-4.9-2.9
				c-1.5-0.4-3.2-0.7-5.1-0.9c-2.4-0.2-4,0-4.6,0.6c-0.4,0.4-0.5,0.9-0.2,1.5c0.2,0.6,0.6,1.1,1.1,1.6c1.6,1.5,3.4,2.4,5.3,2.6
				c0.5,0,2,0,4.6-0.3c1.6-0.2,2.7,0.1,3.5,0.8C64.7,399.4,65.2,399.1,65.5,398.7z M59.5,407.2C59.6,407.2,59.6,407.2,59.5,407.2
				c0.1,0,0.1,0,0.1,0c0,0,0,0,0.1-0.1c0,0,0,0-0.1-0.1c0-0.1,0.1-0.1,0.1-0.1c0,0,0.1,0.1,0.1,0.1c0,0,0,0,0,0c0,0,0,0-0.1-0.1
				c0,0,0,0,0,0c0,0,0,0,0.1,0.1c-0.1,0.1-0.1,0.1-0.2,0.2C59.6,407.3,59.6,407.3,59.5,407.2z"/>
			<path fill="#DE3A51" d="M80.6,412.3c-1.2,1.5-3.4,1.9-6.7,1c-1.5-0.4-4.5-1.4-9.1-3.4c-3.5-1.5-5.8-2.3-6.9-2.1
				c-1.7,0.6-3,1-3.9,1.3c-2,0.5-3.4,0.3-4.3-0.5c-0.5-0.5-0.6-0.9-0.3-1.3c0.3-0.3,1.4-0.5,3.4-0.5c0.9,0,2.1,0,3.8,0
				c1.7,0,2.8-0.2,3.4-0.5c2.1,0,3.2-0.1,5.3-0.2c2.3-0.2,3.8-0.7,4.5-1.5c-0.2-0.1-0.5-0.1-0.8-0.2c-0.3-0.1-0.7-0.3-1.2-0.5
				c-0.1-0.4,0-0.8,0.3-1.2c0.5-0.6,2.3-0.1,5.4,1.5c2.6,1.3,4.5,2.4,5.7,3.4C81.2,409.2,81.7,410.8,80.6,412.3z M78.9,410.9
				c0.5-0.6,0-1.5-1.5-2.7c-0.9-0.7-2-1.3-3.2-1.6c-1.1-0.3-3-0.2-5.5,0.2c-2.7,0.4-4.3,0.8-4.8,1.5c0.7,0.3,1.9,0.9,3.7,1.7
				c1.9,0.8,3.8,1.2,5.8,1.4c0.7,0.1,2,0.1,3.8,0.1C78.1,411.4,78.7,411.2,78.9,410.9z"/>
			<path fill="#DE3A51" d="M90.4,430.8c-1,0.4-1.8,0.5-2.4,0c-0.7-0.5-1.2-1.4-1.4-2.8c-0.2-1.1-0.3-2.1-0.2-3
				c-2.1-0.6-3.6-1-4.3-1.3c-1.8-0.6-3.1-1.3-4-2c-1.6-1.2-1.9-2.4-0.9-3.6c1.5-1.9,4.2-2.6,8.1-2.1c1.3,0.2,2.9,0.5,4.8,1
				c2.3,0.6,3.8,1.2,4.6,1.7c0.5,0.4,0.9,0.9,1,1.7c0.2,0.8,0.1,1.4-0.2,1.8c-0.6,0.9-1.8,1.7-3.7,2.5c-1.8,0.8-2.9,1.3-3,1.5
				c-0.5,0.7-0.7,1.4-0.6,1.9C88.1,428.5,88.9,429.4,90.4,430.8z M94.8,422.1c0.4-0.6,0-1.3-1.2-2.1c-1.8-1.3-3.5-2-5.1-2.2
				c-1.5-0.2-3.2-0.3-5.1-0.2c-2.4,0.1-3.9,0.5-4.5,1.2c-0.3,0.4-0.3,0.9,0,1.5c0.3,0.5,0.7,1,1.3,1.4c1.7,1.3,3.5,1.9,5.5,1.9
				c0.5,0,2-0.3,4.5-0.9c1.5-0.4,2.7-0.3,3.5,0.3C94.1,422.8,94.6,422.4,94.8,422.1z M89.9,431.2C90,431.2,90,431.1,89.9,431.2
				c0.1-0.1,0.1,0,0.1,0c0,0,0,0,0-0.1c0,0,0,0-0.1,0c0-0.1,0.1-0.1,0.1-0.1c0,0,0.1,0.1,0.1,0.1c0,0,0,0,0,0c0,0,0,0-0.1,0
				c0,0,0,0,0,0c0,0,0,0,0.1,0c-0.1,0.1-0.1,0.1-0.1,0.2C90,431.2,90,431.2,89.9,431.2z"/>
			<path fill="#DE3A51" d="M106.3,433.2c-1.6-1.7-2.4-2.6-4-4.3c-1.2-0.8-2.6-0.8-4.3-0.1c-0.6,0.2-1.8,0.9-3.7,2
				c-1.8,1.1-3.6,1-5.3-0.1c0.6-0.6,1.7-1.1,3.4-1.6c1.9-0.5,3.1-1,3.7-1.5c0.5-0.4,1.2-1.1,2-2.2c0.3-0.5,0.8-0.9,1.4-1.2
				c0.8-0.5,1.5-0.6,2-0.3c0.2,0.2,0.3,0.2,0.5,0.4c-0.3,0.7-0.5,1.1-0.8,1.8c-0.1,0.5,0.2,1,1,1.5c0.4,0.3,0.6,0.4,1,0.7
				c0.2,0.1,0.3,0.2,0.4,0.2C106.1,429.9,107,431.5,106.3,433.2z"/>
			<path fill="#DE3A51" d="M126.1,432.4c-0.2,0.4-0.7,0.8-1.3,1.1c-0.3,0.1-1.3,0.5-3,1.1c0.3,0.6,0.7,1.1,1.1,1.7
				c0.4,0.7,0.4,1.3,0,1.7c-0.1,0.1-0.1,0.2-0.2,0.3c0,0-0.4-0.4-1.2-1.1c-0.5-0.5-0.9-0.8-1.3-1c-1.1-0.6-3.3-0.6-6.5,0.1
				c-3.2,0.7-5.2,1.4-5.7,2.3c-0.5,0.8,0.1,1.9,1.7,3.4c1,0.9,2.3,1.8,3.8,2.7c0.6,0.3,1.2,0.6,1.8,0.9c-0.1,0.1-0.1,0.3,0,0.6
				c-1.6-0.4-3-0.9-4.3-1.7c-4.8-2.8-6.5-5.2-5.4-6.9c0.7-1.1,2.8-1.9,6.3-2.6c1.6-0.3,2.4-0.5,4-0.8c-0.4-0.3-0.6-0.4-1-0.7
				c-0.4-0.3-1.1-0.5-2-0.8c-1.7-0.5-2.7-0.8-3-1c-0.3-0.2-0.6-0.5-0.8-0.8c-0.2-0.4-0.2-0.7,0-0.9c0.4-0.6,1.5-0.4,3.3,0.7
				c0.2,0.1,0.4,0.3,0.8,0.5c0.3,0.2,0.6,0.4,0.8,0.5c1.5,0.9,2.9,1.5,4.2,1.6c1.3,0.2,2.6-0.1,3.9-0.7c0.5-0.2,1.7-0.9,3.6-2.1
				c0.3,0.1,0.4,0.4,0.5,0.9C126.3,431.8,126.3,432.2,126.1,432.4z"/>
			<path fill="#DE3A51" d="M148.4,452.6c-0.4,0.9-1.2,1.7-2.4,2.3c-0.6,0.3-1.6,0.8-2.9,1.5c-1.6,0.8-2.5,1.4-2.6,1.8
				c-0.1,0.1-0.1,0.4-0.2,1c0,0.2-0.1,0.4-0.2,0.6c-0.2,0.4-0.6,0.5-1.3,0.4c-0.9-0.6-1.1-1.5-0.6-2.5c0.4-0.9,1.3-1.7,2.7-2.4
				c3-1.6,4.5-2.7,4.9-3.4c-1.4-0.3-3.5-0.3-6.1-0.3c-1.3,0.1-3.2,0.1-5.8,0.2c-3,0-4.9-0.2-5.5-0.5c-0.2-0.1-0.3-0.2-0.4-0.3
				c0.2-0.4,1.6-0.8,4.1-1.3c1.1-0.2,1.8-0.7,2.2-1.4c0.1-0.3,0.2-0.6,0.2-0.9c0,0,0-0.4-0.1-1c-1.6-0.1-3.5,0.1-6,0.5
				c-2.3,0.4-3.5,0.6-5.8,1c-1.9,0.3-3.3,0.2-4.2-0.2c0.1-0.2,0.1-0.3,0.2-0.5c0.2-0.5,2-1,5.2-1.8c1.8-0.4,2.9-0.8,3.3-1
				c0.9-0.6,1.7-0.7,2.3-0.4c0.4,0.2,1.9,0.4,4.3,0.7c1.1,0.1,1.8,0.3,2.2,0.5c0.9,0.4,1.2,1.4,1.1,2.9c0,0.3-0.1,0.9-0.3,1.8
				c1,0,2.9,0,5.6,0.1c2.5,0,4.3,0.3,5.4,0.7C148.6,451,148.8,451.7,148.4,452.6z"/>
			<path fill="#DE3A51" d="M161.7,465.5c-0.9,0.3-2.7,0.2-5.3-0.5c-1.9-0.5-3.7-1.1-5.5-1.8c-3.8-1.5-5.3-3.2-4.5-4.9
				c0.9-2.1,3.6-3,8-3c1.5,0,3.1,0.1,4.6,0.3c1.3,0.8,2.1,1.4,2.5,1.7c0.9,0.6,1.1,1.5,0.7,2.6c-0.4,1-1.4,1.4-3.1,1.4
				c-1.4,0-2.8-0.3-4.1-0.8c-2-0.8-3.4-1.7-4-2.5c-1.3,0-2,0.3-2.3,1c-0.5,1.2,0.6,2.4,3.3,3.5c1,0.4,2.2,0.8,3.6,1.2
				C158.9,464.6,160.9,465.2,161.7,465.5z M160.3,459.1c-0.4-0.8-1.1-1.4-2.1-1.8c-0.7-0.3-1.3-0.4-2-0.4c0,0-0.7,0-2,0.1
				c0.3,1.1,1,1.9,2.2,2.4C157.7,459.9,159,459.8,160.3,459.1z"/>
			<path fill="#DE3A51" d="M181.3,466.8c-0.2,0.6-0.8,1.5-2,2.4c-1.1,1-2.1,1.6-2.9,1.9c-0.1,0.2-0.1,0.4-0.1,0.5
				c0,0.1,0,0.3,0.1,0.5c-0.4,0.5-0.9,0.6-1.6,0.4c-0.4-0.1-0.7-0.3-1-0.6c-0.2-0.3-0.3-0.6-0.2-0.9c0.2-0.5,1-1.2,2.6-2.2
				c1.6-0.9,2.4-1.6,2.6-2.1c0.3-0.9-0.1-1.6-1.3-1.9c-1.5-0.5-3.2-0.4-5,0.3c-0.9,0.4-2.7,1.1-5.2,2c-2,0.7-3.8,0.9-5.3,0.6
				c0-0.1,0.1-0.1,0.1-0.2c-0.1-0.2-0.1-0.2-0.2-0.4c0.3-1,2-2.1,4.9-3.4c1.7-0.8,2.8-1.4,3.3-1.8c0.4-0.4,0.7-0.8,1.1-1.2
				c0.3-0.3,0.6-0.5,0.8-0.6c0.2-0.1,0.6-0.1,1,0.1c0.6,0.2,0.8,0.6,0.7,1.1c-0.1,0.4-0.3,0.6-0.5,0.8c0,0.1-0.5,0.5-1.2,1.2
				c2.2-0.2,3.4-0.3,3.7-0.3c1.7-0.1,2.9-0.1,3.6,0.2c0.8,0.3,1.4,0.8,1.8,1.5S181.5,466.1,181.3,466.8z"/>
			<path fill="#DE3A51" d="M199.2,460.9c-0.1,0.5-0.4,0.9-0.9,1.4c-0.2,0.2-1.1,0.8-2.6,1.9c0.5,0.5,1,0.9,1.5,1.3
				c0.5,0.6,0.7,1.1,0.5,1.7c0,0.1-0.1,0.2-0.1,0.3c0,0-0.5-0.3-1.4-0.8c-0.6-0.3-1.1-0.5-1.4-0.6c-1.2-0.3-3.3,0.3-6.2,1.8
				c-2.9,1.5-4.6,2.7-4.9,3.8c-0.3,0.9,0.6,1.9,2.5,2.8c1.2,0.6,2.6,1.1,4.2,1.6c0.6,0.2,1.3,0.3,1.9,0.4c0,0.1,0,0.3,0.2,0.6
				c-1.6,0.1-3.1-0.1-4.5-0.5c-5.2-1.4-7.5-3.2-6.9-5.2c0.4-1.2,2.2-2.6,5.4-4.2c1.5-0.7,2.2-1.1,3.6-1.9c-0.5-0.1-0.7-0.2-1.2-0.4
				c-0.5-0.2-1.2-0.2-2.1-0.2c-1.8,0-2.8,0-3.1-0.1c-0.4-0.1-0.7-0.3-1-0.6c-0.3-0.3-0.4-0.6-0.3-0.9c0.2-0.7,1.3-0.8,3.3-0.2
				c0.2,0.1,0.5,0.2,0.9,0.3c0.4,0.1,0.7,0.2,0.9,0.3c1.7,0.5,3.1,0.6,4.4,0.4c1.2-0.2,2.4-0.8,3.6-1.7c0.4-0.3,1.4-1.3,2.9-2.9
				c0.3,0.1,0.5,0.3,0.7,0.7C199.2,460.3,199.2,460.7,199.2,460.9z"/>
			<path fill="#DE3A51" d="M233.5,475.7c-0.1,0.9-1,2.3-2.6,4.3c-1.7,2-2.6,3.3-2.6,4c-0.1,0.6,0,1.1,0.4,1.7
				c-0.9,0.2-1.6,0.3-2.1,0.3c-0.9-0.1-1.3-0.5-1.2-1.3c0.1-0.8,1-2.2,2.7-4.2c1.7-2.1,2.5-3.6,2.7-4.4c0-0.1,0-0.3,0-0.5
				c0-0.3,0-0.4,0-0.6c-3.4-0.1-6.8,0.5-10.2,1.7c-3.6,1.3-6.3,3.1-8,5.3c-0.5-0.2-1.2-0.6-2.2-0.9c0.2-0.4,1.2-1.2,3-2.6
				c0.6-0.4,2.4-1.7,5.2-3.9c2.1-1.6,3.4-2.7,3.9-3.3c0.2-0.2,1.1-1.4,2.6-3.6c1.1-1.6,2.1-2.6,2.9-3.1c0.2,0.2,0.5,0.4,0.8,0.5
				c0.3,0.2,0.4,0.4,0.3,0.7c0,0.3-2.3,3.4-7.2,9.2c2-0.4,3.8-0.7,5.3-1c2.9-0.6,4.5-0.8,4.8-0.8c0.4,0.1,0.7,0.2,0.9,0.4
				C233.4,474.1,233.7,474.9,233.5,475.7z"/>
			<path fill="#DE3A51" d="M254.6,481.1c-0.1,1.8-1.8,3.1-5,3.9c-2.5,0.6-5.1,0.8-7.8,0.5c-5.6-0.5-8.3-2-8.1-4.3
				c0.2-1.6,2.2-2.9,5.9-4.1c3.3-1,6.1-1.5,8.2-1.3c1.9,0.1,3.5,0.6,4.7,1.4C254.1,478.3,254.7,479.5,254.6,481.1z M252.7,480.8
				c0.1-0.9-0.5-1.7-1.6-2.2c-0.9-0.4-2-0.7-3.2-0.8c-2.1-0.2-4.3,0.2-6.6,0.9c-2.4,0.8-4.3,1.8-5.5,3c1.4,1.5,3.3,2.4,5.5,2.6
				c2.1,0.2,4.4,0.1,6.7-0.4C251.1,483.3,252.6,482.2,252.7,480.8z"/>
			<path fill="#DE3A51" d="M276,473.1c-0.2,0.9-1,1.6-2.5,1.9c-0.9,0.2-2.5,0.5-4.8,1c-2,0.4-3.4,1-4.3,1.7c2.9,0.7,4.7,1.1,5.4,1.3
				c2.5,0.8,3.8,1.7,3.8,2.7c0,1.5-1.5,2.9-4.6,4.2c-2.7,1.1-5.2,1.6-7.2,1.6c-1.7,0-3.2-0.6-4.6-1.7c-1.5-1.2-2.1-2.5-1.9-3.8
				c0-0.2,0-0.3,0.1-0.4c0.6,0.2,1.5,1.1,2.7,2.5c1.1,1.4,2.1,2.1,3,2.1c1.5,0,3.5-0.3,6-1.1c2.8-0.9,4.2-2,4.2-3
				c0-0.7-0.8-1.3-2.4-1.7c-0.1,0-1.8-0.4-5.2-1.2c-1.9-0.4-3.1-1-3.6-1.5c0.7-0.6,2.1-1.2,4.2-1.9c1.3-0.4,3.3-0.9,5.8-1.6
				c2.8-0.7,4.4-1.2,4.9-1.3C275.3,473,275.7,473.1,276,473.1z"/>
			<path fill="#DE3A51" d="M291.5,468.9c0,0.5-0.1,1-0.5,1.6c-0.1,0.3-0.8,1.1-1.9,2.6c0.6,0.3,1.2,0.6,1.8,0.8c0.7,0.4,1,0.9,1,1.4
				c0,0.1,0,0.2,0,0.3c0,0-0.6-0.1-1.6-0.3c-0.7-0.1-1.2-0.2-1.6-0.2c-1.3,0.1-3,1.3-5.3,3.6c-2.3,2.3-3.5,4-3.4,5.1
				c0,0.9,1.1,1.6,3.2,1.9c1.3,0.2,2.8,0.3,4.5,0.2c0.6,0,1.3-0.1,1.9-0.2c0,0.1,0.1,0.3,0.3,0.5c-1.5,0.5-2.9,0.9-4.4,0.9
				c-5.3,0.2-8-0.8-8.1-2.9c0-1.2,1.3-3.1,3.8-5.6c1.2-1.1,1.7-1.7,2.9-2.9c-0.5,0-0.7,0-1.2,0c-0.5,0-1.2,0.1-2,0.4
				c-1.7,0.6-2.6,0.8-2.9,0.8c-0.4,0-0.8-0.1-1.1-0.3c-0.3-0.2-0.5-0.4-0.5-0.8c0-0.7,1-1.1,3-1.2c0.2,0,0.5,0,0.9,0
				c0.4,0,0.7,0,0.9,0c1.7-0.1,3.2-0.4,4.3-0.9c1.1-0.5,2-1.5,2.8-2.7c0.3-0.4,0.9-1.7,1.8-3.7c0.3,0,0.6,0.1,0.9,0.5
				S291.5,468.7,291.5,468.9z"/>
			<path fill="#DE3A51" d="M298.3,477.4c0,0.3-0.5,1.9-1.6,4.7c-0.1,0.4-0.3,0.9-0.6,1.6c-0.2,0.5-0.6,0.9-1,1.1
				c-0.3,0.1-0.8,0.2-1.6,0.2c0-0.1-0.1-0.3-0.1-0.6c-0.1-0.2-0.1-0.4-0.1-0.6c0-0.4,0.1-0.9,0.5-1.4c0.5-0.7,0.8-1.2,0.8-1.4
				c0.2-0.5,0.4-1.4,0.9-2.6c0.3-0.9,0.9-1.6,1.7-2.3C297.9,476.7,298.2,477.1,298.3,477.4z M300.7,469.3c0.1,0.7-0.4,1.1-1.5,1.2
				c-1,0.1-1.5-0.2-1.6-0.9c0-0.3,0.1-0.8,0.3-1.5c0.2-0.6,0.3-1.1,0.3-1.4c0.2,0.1,0.7,0.6,1.4,1.5c0,0.1,0.3,0.2,0.7,0.5
				C300.6,468.8,300.7,469,300.7,469.3z"/>
			<path fill="#DE3A51" d="M319.8,476.2c0.1,0.7-0.1,1.7-0.7,3c-0.6,1.4-1.2,2.3-1.7,2.9c0.1,0.2,0.1,0.4,0.1,0.4
				c0.1,0.1,0.2,0.3,0.3,0.4c-0.1,0.6-0.5,1-1.3,1.1c-0.4,0.1-0.8,0-1.1-0.1c-0.3-0.1-0.5-0.4-0.6-0.7c-0.1-0.5,0.4-1.6,1.4-3.1
				c1-1.5,1.4-2.5,1.4-3c-0.1-1-0.8-1.4-2-1.2c-1.6,0.2-3,1-4.4,2.5c-0.7,0.8-1.9,2.1-3.8,4.1c-1.5,1.5-3,2.5-4.5,2.9
				c0-0.1,0-0.2,0-0.3c-0.1-0.1-0.2-0.2-0.3-0.3c-0.1-1,0.9-2.7,2.9-5.2c1.2-1.4,1.9-2.4,2.2-3.1c0.1-0.5,0.3-1,0.5-1.6
				c0.2-0.4,0.3-0.7,0.5-0.9c0.2-0.2,0.5-0.3,0.9-0.3c0.6-0.1,1,0.2,1.1,0.7c0,0.4,0,0.7-0.1,0.9c0,0.1-0.2,0.6-0.6,1.6
				c1.9-1.1,2.9-1.8,3.2-1.9c1.5-0.8,2.6-1.3,3.3-1.4c0.9-0.1,1.6,0.1,2.2,0.6S319.7,475.4,319.8,476.2z"/>
			<path fill="#DE3A51" d="M334.5,472.3c0.1,0.4,0,1.2-0.3,2.3c-0.1,0.5-0.2,0.9-0.1,1.2c0.6,2.9,0.9,5.3,0.8,7.3
				c-0.2,6.4-3.5,10.2-9.9,11.3c-1.1,0.2-2.7,0.2-4.6-0.1c-2.3-0.3-3.5-0.9-3.6-1.6c0-0.2,0-0.5,0.2-1.1c0.1,0,0.2,0,0.4-0.1
				c0.7,0.5,1.8,0.9,3.4,1.2c1.6,0.3,2.8,0.4,3.7,0.3c2.9-0.5,5.2-2,6.7-4.6c1.4-2.3,1.8-4.6,1.3-7c-0.1-0.6-0.4-1-0.7-1.4
				c-0.5-0.1-0.9-0.1-1.1,0c-0.1,0-0.4,0.1-0.7,0.3c-0.3,0.1-0.6,0.2-0.8,0.3c-2.3,0.4-3.9,0.6-5,0.6c-2.2-0.1-3.4-0.7-3.6-2
				c-0.3-1.8,0.7-3.6,3-5.5c2.1-1.7,4.2-2.8,6.4-3.2C332.6,469.8,334.1,470.5,334.5,472.3z M332.2,472.4c-0.1-0.6-0.9-0.8-2.3-0.5
				c-1.5,0.3-3,1.1-4.6,2.4c-1.8,1.5-2.6,2.8-2.4,3.9c0.2,1.3,1.8,1.7,4.9,1.1c0.8-0.1,1.5-0.4,2.3-0.7c1-0.5,1.5-1,1.4-1.4
				c0-0.1-0.1-0.3-0.3-0.5c-0.2-0.2-0.2-0.4-0.3-0.5c0-0.2,0.2-1,0.9-2.3C332.2,473.2,332.3,472.8,332.2,472.4z"/>
			<path fill="#DE3A51" d="M364.8,449.7c0.1,1.2-0.3,2.8-1.2,4.6c-0.5,0.9-1.3,2.6-2.5,5c-0.9,1.8-1.4,3.3-1.3,4.4
				c1.8-0.2,2.8-0.4,4.6-0.6c2.1-0.1,3.4,0.4,3.7,1.5c0.5,1.6-0.6,3.8-3.6,6.6c-2.7,2.5-5.2,4.1-7.3,4.7c-0.9,0.2-2.8,0.3-5.9,0.2
				c-0.1-0.2-0.1-0.3-0.1-0.5c-0.1-0.3,0.1-0.7,0.4-1.2c0.6-1,1.4-2.4,2.5-4.1c1-1.6,1.5-2.5,2.4-4.1c1-1.8,1.7-3,2.1-3.7
				c0.8-1.4,1.3-2.7,1.6-3.8c0.3-1.1,0.9-3,1.7-5.7C362.2,451.3,363.2,450.2,364.8,449.7z M366.4,465.3c-0.2-0.6-0.8-0.9-1.9-0.9
				c-0.8,0-1.6,0.2-2.6,0.4c-2.1,0.6-3.9,1.9-5.3,3.7c-1.4,1.8-1.9,3.6-1.5,5.4c0.2,0.8,0.8,1.1,1.9,0.8c1.7-0.5,3.8-1.8,6.2-3.9
				C365.7,468.4,366.8,466.5,366.4,465.3z"/>
			<path fill="#DE3A51" d="M387.8,465c-0.2,1-0.6,1.7-1.2,2c-0.8,0.3-1.8,0.2-3-0.4c-1-0.4-1.8-0.9-2.6-1.6
				c-1.6,1.4-2.7,2.3-3.3,2.8c-1.5,1.1-2.7,1.8-3.8,2.2c-1.8,0.6-2.9,0.2-3.4-1.3c-0.8-2.3,0.1-4.9,2.5-7.8c0.8-0.9,1.9-2.1,3.4-3.4
				c1.7-1.5,3-2.5,3.8-2.8c0.6-0.2,1.2-0.2,2,0.1c0.7,0.3,1.2,0.7,1.4,1.2c0.4,1,0.4,2.5,0.1,4.4c-0.3,2-0.5,3.1-0.4,3.3
				c0.3,0.9,0.7,1.4,1.2,1.6C384.8,465.6,385.9,465.5,387.8,465z M383.1,456.4c-0.3-0.6-1-0.7-2.4-0.2c-2,0.8-3.5,1.7-4.5,2.9
				c-1,1.1-1.9,2.5-2.9,4.1c-1.2,2.1-1.6,3.5-1.4,4.4c0.2,0.5,0.6,0.8,1.2,0.9c0.6,0.1,1.2,0,1.8-0.2c2-0.7,3.4-1.8,4.4-3.4
				c0.2-0.4,0.8-1.8,1.7-4.1c0.5-1.5,1.2-2.4,2.1-2.7C383.3,457.4,383.2,456.9,383.1,456.4z M387.9,465.6
				C387.9,465.6,387.9,465.5,387.9,465.6c0-0.1,0-0.1,0-0.1c0,0,0,0,0-0.1c0,0,0,0-0.1,0c0-0.1,0-0.1-0.1-0.2c0.1,0,0.1,0,0.1-0.1
				c0,0,0,0,0,0.1c0,0,0,0-0.1,0c0,0,0,0,0,0.1c0,0,0,0,0.1,0c0,0.1,0.1,0.1,0.1,0.2C388,465.6,388,465.6,387.9,465.6z"/>
			<path fill="#DE3A51" d="M398.4,453.2c-2.3,0.4-3.4,0.6-5.7,0.9c-1.3,0.5-2.1,1.7-2.4,3.5c-0.2,0.6-0.3,2-0.4,4.1
				c-0.1,2.1-1.1,3.6-3,4.3c-0.2-0.8,0-2,0.5-3.7c0.6-1.8,0.8-3.1,0.8-3.9c0-0.6-0.3-1.6-0.7-2.9c-0.2-0.5-0.3-1.2-0.2-1.8
				c0.1-1,0.3-1.6,0.8-1.8c0.2-0.1,0.4-0.1,0.6-0.2c0.4,0.7,0.6,1,1.1,1.7c0.3,0.4,0.9,0.4,1.8,0c0.4-0.2,0.7-0.3,1.1-0.5
				c0.2-0.1,0.3-0.2,0.4-0.2C395.6,451.6,397.3,451.7,398.4,453.2z"/>
			<path fill="#DE3A51" d="M420.8,447.4c-0.9,1.5-2.5,3.2-5,4.9c-1.9,1.4-4,2.7-6.3,3.8c-5,2.4-8.1,2.3-9.2-0.2
				c-1.2-2.6,0.8-6.4,5.8-11.4c1.7-1.7,3.3-3.2,5-4.5c1,0,1.6,0.2,1.8,0.7c0.3,0.6,0.5,1.5,0.4,2.7c0,1.4-0.4,2.3-1.1,2.6
				c-0.3,0.2-0.7,0.2-1.1,0.2c-0.4,0-0.6-0.1-0.8-0.4c-0.1-0.2,0.1-1.2,0.6-3c-0.4,0.1-0.8,0.3-1.1,0.4c-1.8,0.8-3.7,2.7-5.7,5.2
				c-2.1,2.8-2.9,4.9-2.2,6.4c0.5,1.1,1.6,1.6,3.2,1.5c1.2-0.1,2.6-0.5,4.1-1.2c3.5-1.7,6.4-3.5,8.6-5.2c0.1-0.1,0.3-0.3,0.8-0.9
				c0.3-0.3,0.6-0.6,0.9-0.7c0.1,0,0.2-0.1,0.2-0.1c0.1-0.2,0.1-0.2,0.2-0.4C420.4,447.6,420.5,447.5,420.8,447.4
				C420.8,447.4,420.8,447.4,420.8,447.4z"/>
			<path fill="#DE3A51" d="M436.2,438.5c-0.3,0.9-1.5,2.2-3.7,3.9c-1.5,1.2-3.2,2.3-4.9,3.3c-3.6,2-5.8,2.2-6.7,0.5
				c-1.1-2-0.1-4.7,2.7-8.2c1-1.2,2-2.4,3.2-3.5c1.5-0.5,2.4-0.9,2.9-1c1.1-0.3,1.9,0,2.5,1c0.5,0.9,0.2,2-0.9,3.3
				c-0.9,1.1-2,2.1-3.2,2.8c-1.9,1.1-3.4,1.7-4.5,1.7c-0.8,1-1.1,1.8-0.7,2.4c0.6,1.1,2.2,1,4.8-0.5c0.9-0.5,2-1.2,3.2-2.1
				C433.6,440.2,435.4,439,436.2,438.5z M430.1,435.7c-0.9-0.2-1.8,0-2.7,0.5c-0.6,0.4-1.1,0.8-1.5,1.3c0,0-0.4,0.6-1.2,1.6
				c1.1,0.4,2.2,0.4,3.2-0.3C429.1,438.2,429.9,437.1,430.1,435.7z"/>
			<path fill="#DE3A51" d="M439.6,416.4c0.1,0.1,0.1,1.6,0.1,4.4c0,3.3,0,5-0.1,8.3c-0.1,3.5-0.1,5.5,0,6c0.1,0.8,0.2,1.2,0.4,1.9
				c0.1,0.9-0.2,1.5-0.8,1.8c-0.3,0.2-0.7,0.4-1.2,0.5c-0.2-0.1-0.4-0.1-0.6-0.2c-0.3-1-0.3-2.8-0.1-5.3c0.3-3,0.4-4.5,0.6-7.5
				c0.2-2.9,0.1-5.2-0.3-6.8c-0.1-0.3-0.3-0.9-0.5-1.8c-0.1-0.6,0-1.2,0.4-1.8c0.3-0.2,0.7-0.2,1.1-0.1
				C439.1,416,439.4,416.2,439.6,416.4z"/>
			<path fill="#DE3A51" d="M463.2,415.5c1.1,1.4,0.7,3.6-1.4,6.4c-1.6,2.2-3.5,4.1-5.8,5.7c-4.8,3.4-7.9,4.1-9.2,2.2
				c-0.9-1.3-0.2-3.7,2-7.1c2-3,3.8-5.2,5.7-6.6c1.6-1.2,3.2-1.9,4.7-2.1C460.9,413.8,462.2,414.3,463.2,415.5z M461.5,416.6
				c-0.6-0.7-1.5-0.9-2.7-0.6c-1,0.3-2,0.8-3.1,1.6c-1.7,1.3-3.3,3-4.6,5.2c-1.4,2.2-2.2,4.2-2.3,6c2.1,0.2,4.1-0.5,6-1.8
				c1.8-1.3,3.5-2.9,5-4.8C461.8,419.6,462.3,417.7,461.5,416.6z"/>
			<path fill="#DE3A51" d="M477.2,401.8c0.4,0.5,0.8,1.5,1,3c0.2,1.5,0.2,2.7,0,3.5c0.2,0.2,0.3,0.3,0.4,0.3
				c0.1,0.1,0.3,0.1,0.5,0.2c0.2,0.6,0,1.1-0.6,1.6c-0.3,0.3-0.7,0.5-1.1,0.5c-0.4,0.1-0.7,0-0.9-0.2c-0.4-0.4-0.5-1.6-0.4-3.4
				c0.1-1.8-0.1-3-0.4-3.3c-0.6-0.7-1.4-0.7-2.4,0.2c-1.3,1.1-2.1,2.6-2.6,4.6c-0.2,1-0.6,2.9-1.2,5.6c-0.5,2.2-1.3,3.8-2.5,5
				c-0.1-0.1-0.1-0.1-0.2-0.2c-0.2,0-0.3,0-0.4,0c-0.6-0.8-0.7-2.8-0.2-6.1c0.3-1.9,0.4-3.1,0.3-3.8c-0.1-0.5-0.3-1.1-0.4-1.6
				c-0.1-0.4-0.1-0.8,0-1c0.1-0.2,0.3-0.5,0.6-0.8c0.5-0.4,1-0.4,1.3,0c0.2,0.3,0.4,0.6,0.4,0.8c0,0.1,0.2,0.6,0.4,1.7
				c1.1-2,1.6-3.2,1.8-3.4c0.9-1.6,1.6-2.6,2.2-3.1c0.7-0.6,1.5-0.9,2.3-0.8C476,400.9,476.7,401.2,477.2,401.8z"/>
			<path fill="#DE3A51" d="M495.8,394.1c0.3,1,0.1,1.8-0.4,2.4c-0.6,0.6-1.6,0.9-3.1,1c-1.1,0-2.1-0.1-3.1-0.3c-1,2-1.7,3.4-2.1,4.1
				c-1,1.7-1.9,2.9-2.8,3.7c-1.5,1.3-2.7,1.4-3.8,0.3c-1.6-1.8-1.8-4.6-0.6-8.4c0.4-1.2,1.1-2.8,2-4.6c1.1-2.2,1.9-3.6,2.6-4.3
				c0.5-0.5,1.1-0.7,1.9-0.7c0.8,0,1.4,0.2,1.8,0.5c0.7,0.7,1.3,2.1,1.8,4.1c0.4,2,0.7,3.1,0.9,3.3c0.6,0.7,1.2,1,1.7,1
				C493.1,395.9,494.2,395.3,495.8,394.1z M488,388.1c-0.5-0.5-1.3-0.2-2.4,0.9c-1.6,1.6-2.7,3.1-3.2,4.7c-0.5,1.5-0.9,3.2-1.2,5.1
				c-0.3,2.4-0.2,4,0.4,4.6c0.4,0.4,0.9,0.5,1.5,0.3c0.6-0.2,1.1-0.5,1.7-1c1.6-1.5,2.6-3.2,2.9-5.1c0.1-0.5,0.1-2,0-4.6
				c-0.1-1.6,0.3-2.7,1-3.4C488.6,389,488.3,388.5,488,388.1z M496.1,394.6C496.1,394.5,496.1,394.5,496.1,394.6c0-0.1,0-0.1,0-0.1
				c0,0,0,0-0.1-0.1c0,0,0,0-0.1,0.1c0,0-0.1-0.1-0.1-0.1c0,0,0.1-0.1,0.1-0.1c0,0,0,0,0,0c0,0,0,0-0.1,0.1c0,0,0,0,0,0
				c0,0,0,0,0.1-0.1c0.1,0.1,0.1,0.1,0.2,0.2C496.2,394.5,496.2,394.5,496.1,394.6z"/>
		</g>
	</g>
</g>
<g id="Layer_2">
	<g>
		<g>
			<path fill="#B4E2F2" d="M161.7,168.5c-4.9,23.4-11.9,46.9-22.7,68.3c-8.8,17.5-23.6,36.4-45.1,36.6c-7.7,0.1-15.4-4-20-10.1
				c-5.4-7.1-6.5-15.1-3.4-23.4c2.6-7,9.7-11.9,16.8-11.8c7.5,0.1,13.5,6.3,16.5,12.8c2.2,5,9.4,6.1,13.7,3.6
				c5.1-3,5.8-8.7,3.6-13.7c-5.1-11.4-16.2-20.1-28.5-22.1c-13.3-2.2-26.4,3.2-34.6,13.9C40.6,244.9,49.8,277.1,75,289
				c27.8,13.2,56.3-5.3,72.5-27.6c8.6-11.9,14.3-25.9,19.5-39.5c5.5-14.5,9.8-29.4,13.2-44.5c0.3-1.2,0.5-2.4,0.8-3.6
				C183.6,161.2,164.3,155.8,161.7,168.5L161.7,168.5z"/>
		</g>
	</g>
	<g>
		<g>
			<path fill="#B4E2F2" d="M362.7,173.8c6.1,29,15.3,59.8,31.5,84.9c14.7,22.6,42.8,42.5,70.8,31.9c25.8-9.8,38.5-41,23.1-64.9
				c-7.1-11.1-19.7-18.4-33-17.6c-13.1,0.9-24.8,8.9-31.2,20.1c-0.4,0.8-0.9,1.7-1.2,2.5c-2.2,5-1.5,10.7,3.6,13.7
				c4.3,2.5,11.4,1.4,13.7-3.6c3.1-6.9,8.9-12.3,16.5-12.8c7.3-0.5,14,5.1,16.8,11.8c6.7,16.1-6.9,33-23.4,33.5
				c-21.4,0.6-36.3-19.7-45.1-36.6c-11-21.2-17.8-45-22.7-68.3C379.3,155.8,360,161.2,362.7,173.8L362.7,173.8z"/>
		</g>
	</g>
	<g>
		<g>
			<path fill="#B4E2F2" d="M309.1,166.1c-15.4,25.7-21.5,57-25.3,86.3c-3.7,28.7-1.9,59.1,17.3,82.2c15.7,18.9,43.7,28.2,65.4,14.1
				c21.6-14.1,37.6-54.5,12.6-72.7c-13.3-9.7-31.8-6.5-45.6,0.2c-4.9,2.4-6.2,9.2-3.6,13.7c2.9,5,8.8,6,13.7,3.6
				c6.5-3.2,16-4.9,21.6-2.5c3.9,1.7,5.4,3.8,6.5,8.6c1.2,5.3-1.3,12.1-3.5,16.8c-4.1,8.8-11.9,18.1-21.6,19.3
				c-9.2,1.1-18.3-3-25.4-9.1c-20.1-17.3-20.6-46.1-17.8-70.5c1.6-13.9,4.6-27.9,8-41.4c3.4-13.4,7.9-26.4,15-38.4
				C333.1,165.1,315.8,155,309.1,166.1L309.1,166.1z"/>
		</g>
	</g>
	<g>
		<g>
			<path fill="#B4E2F2" d="M209.1,176.2c13.8,23,19.4,51.7,22.8,78c3.2,24.7,2.7,53-16.6,71.3c-6.9,6.6-16,10.5-25.1,10.1
				c-10-0.4-17.7-9.5-22.2-18c-2.8-5.4-4.4-11.4-4.3-17.5c0.1-2.4,1.1-4.4,2.4-6.4c0.6-0.9,1.7-1.6,3.2-2.4c5.7-3.2,15.9-1.2,22.6,2
				c4.9,2.4,10.8,1.4,13.7-3.6c2.6-4.4,1.3-11.3-3.6-13.7c-10.7-5.2-22.1-7.5-33.9-5.3c-12.4,2.3-21.8,12.7-23.7,25
				c-2.3,14.8,3.9,30.3,13,41.9c8.2,10.5,19.7,16.9,33,18c25.1,2.1,47.7-19.5,56.4-41.2c11.4-28.5,6.3-60.4,0.3-89.6
				c-4.2-20.4-9.8-40.8-20.6-58.8C219.7,155,202.4,165.1,209.1,176.2L209.1,176.2z"/>
		</g>
	</g>
	<g>
		<g>
			<path fill="#B4E2F2" d="M143.4,191.6c-4-13.2-13.9-23.1-26.7-28c-14.3-5.6-30.1-3.1-44.2,1.7c-25.8,8.6-51.1,24-62.8,49.6
				C-1.3,239.1,0,267.4,9,292c9.3,25.3,27.5,49.4,53.6,58.7c19.4,6.9,48.2,1.9,58.1-18.1c5.7-11.5-11.6-21.7-17.3-10.1
				c-4.9,9.8-17.9,11.8-27.7,10.9c-11.9-1.1-22.3-9.4-30-17.8C29,297.4,20.8,271.6,22,247.3c0.5-11.2,4-22,9.9-31.4
				c6.8-10.8,17.6-18.2,28.7-24c12.2-6.4,26.2-11.7,40.1-11.5c10.2,0.2,20.5,6.5,23.5,16.5C127.9,209.2,147.2,204,143.4,191.6
				L143.4,191.6z"/>
		</g>
	</g>
	<g>
		<g>
			<path fill="#B4E2F2" d="M99.6,324.5c-3.8,24.2,1,49.1,14.7,69.6c14.1,21,36.6,33.7,61.6,36c25.4,2.4,48.5-10.1,66.8-26.7
				c19.1-17.3,36.5-39.6,39.2-66c0.6-5.4-5-10-10-10c-5.9,0-9.4,4.6-10,10c-2.1,20.2-18.1,37.4-32.1,50.7
				c-14.5,13.8-32,23.1-52.4,22.1c-39.5-2-64.2-43.8-58.5-80.4c0.8-5.4-1.3-10.7-7-12.3C107.1,316.2,100.4,319.1,99.6,324.5
				L99.6,324.5z"/>
		</g>
	</g>
	<g>
		<g>
			<path fill="#B4E2F2" d="M424.5,197.7c2.9-9.5,12.1-15.5,21.7-16.4c13.8-1.4,28.3,4.7,40.5,10.6c11.3,5.6,22,13.1,29.3,23.5
				c6.7,9.6,10,21.1,10.7,32.6c1.6,23.9-7.1,48.8-22.7,67c-8.1,9.5-18.3,16.6-30.7,19c-9.6,1.8-23.4-1.4-28.1-10.8
				c-5.7-11.6-23-1.4-17.3,10.1c6.2,12.6,21,19.2,34.3,20.7c13.6,1.5,27.1-2.4,38.6-9.7c22.6-14.4,37.3-40.6,43.1-66.2
				c5.8-25.4,3.1-53.9-12.7-75.4c-8.3-11.3-19.4-20-31.7-26.6c-13-7-27.7-12.7-42.4-14.5c-22.4-2.6-45.1,8.3-52,30.8
				C401.4,204.8,420.7,210,424.5,197.7L424.5,197.7z"/>
		</g>
	</g>
	<g>
		<g>
			<path fill="#B4E2F2" d="M424,333.5c5.8,37.3-19.1,77.6-58.5,80.4c-20.4,1.5-37.9-8.7-52.4-22.1c-14.1-13.1-30.1-30.6-32.1-50.7
				c-0.6-5.4-4.1-10-10-10c-5,0-10.6,4.6-10,10c2.7,26.1,19.5,47.3,38,64.8c18.5,17.6,42,29.7,68.1,27.8c24.7-1.8,46.3-15,60.7-34.8
				c14.7-20.2,19.4-46.5,15.6-70.8c-0.8-5.4-7.5-8.3-12.3-7C425.2,322.8,423.1,328.1,424,333.5L424,333.5z"/>
		</g>
	</g>
	<g>
		<g>
			<path fill="#6ECEE9" d="M165.5,170.5c-5.1,24-12.4,48.1-23.4,70.1c-10.1,20-27.3,40.1-51.6,40.3c-21.8,0.2-38.1-22.7-30.7-43
				c3.7-10,13.3-17.4,24-17.3c10.2,0.1,18.9,7.6,23,16.5c1.3,2.9,5.6,0.4,4.3-2.5c-4.4-9.8-13.3-16.9-24-18.7
				c-10.8-1.8-20.8,3.6-27.3,11.9c-14.6,18.9-4.8,45.1,15.6,54.7c23.7,11.2,48.7-6.2,62.2-24.9c8.3-11.4,13.8-24.6,18.7-37.7
				c5.5-14.5,9.8-29.4,13.2-44.5c0.3-1.2,0.5-2.4,0.8-3.6C171,168.6,166.2,167.3,165.5,170.5L165.5,170.5z"/>
		</g>
	</g>
	<g>
		<g>
			<path fill="#6ECEE9" d="M366.5,171.8c6,28.4,14.8,58.5,30.8,83.1c13,20,37.6,37.9,62.3,28.5c21.5-8.2,31.2-34.3,18.6-53.8
				c-12.7-19.8-40.1-17-51.3,2.6c-0.4,0.8-0.9,1.7-1.2,2.5c-1.3,2.9,3,5.5,4.3,2.5c4.2-9.3,12.6-15.9,23-16.5
				c10.9-0.7,20.1,7.7,24,17.3c8.7,20.8-9.8,42.4-30.7,43c-24.1,0.7-41.6-21-51.6-40.3c-11.3-21.8-18.4-46.2-23.4-70.1
				C370.6,167.3,365.8,168.6,366.5,171.8L366.5,171.8z"/>
		</g>
	</g>
	<g>
		<g>
			<path fill="#6ECEE9" d="M312.2,169.9c-14.7,24.5-20.6,54.5-24.3,82.5c-3.4,26.4-2.7,55.5,15.1,76.9
				c13.6,16.4,37.3,25.3,56.3,12.9c16.4-10.7,32.6-45.1,12.6-59.7c-11.1-8.1-26.5-5.4-38,0.2c-2.9,1.4-0.4,5.7,2.5,4.3
				c8.7-4.3,19.9-6.6,29.1-2.5c14.2,6.2,10.8,24.4,5.6,35.6c-5.3,11.5-15.2,21.4-28.1,23c-11.3,1.4-22.3-4.1-30.7-11.3
				c-21.6-18.6-23-49.5-20-75.8c1.7-14.6,4.7-29.2,8.3-43.4c3.5-14,8.3-27.7,15.8-40.1C318.2,169.6,313.9,167.1,312.2,169.9
				L312.2,169.9z"/>
		</g>
	</g>
	<g>
		<g>
			<path fill="#6ECEE9" d="M212.1,172.4c14.5,24.2,20.2,54.1,23.9,81.8c3.5,26.7,2,56.9-18.8,76.6c-8.2,7.7-19.1,12.8-30.4,12.3
				c-13.1-0.6-22.9-10.8-28.7-21.7c-6-11.4-9.3-29,3.9-36.5c9-5.1,21.5-2.2,30.1,2c2.9,1.4,5.4-2.9,2.5-4.3
				c-16.9-8.3-43.1-8-46.7,15.2c-1.8,11.8,3.9,25.4,11,34.6c7,8.9,16.3,14.8,27.7,15.8c21.6,1.8,41.6-16.9,49.2-35.7
				c10.9-27.3,6-57.6,0.3-85.6c-4-19.8-9.4-39.5-19.8-57C214.8,167.1,210.5,169.6,212.1,172.4L212.1,172.4z"/>
		</g>
	</g>
	<g>
		<g>
			<path fill="#6ECEE9" d="M132.8,193.6c-3.2-10.5-11.2-18.8-21.4-22.8c-13.2-5.1-27.2-2.7-40.2,1.7c-24.1,8.1-47.4,22.3-58.3,46.2
				C2.6,241,4.6,267.5,12.8,290c8.3,22.7,24.9,45.1,48.3,53.4c16.4,5.8,41.2,2.4,49.6-14.7c1.4-2.9-2.9-5.4-4.3-2.5
				c-6,12.1-21.8,15.7-34.2,14.6c-14-1.3-26.1-10-35.3-20c-18-19.5-27.2-47.2-25.9-73.5c0.6-12.5,4.3-24.6,10.9-35.2
				c7.5-11.8,19.1-20.3,31.4-26.7c13.3-7,28.7-12.8,43.8-12.5c13.6,0.3,26.7,8.8,30.8,22.1C128.9,198,133.7,196.7,132.8,193.6
				L132.8,193.6z"/>
		</g>
	</g>
	<g>
		<g>
			<path fill="#6ECEE9" d="M103.4,326.5c-3.5,22.2,1.4,45.1,14,63.8c12.5,18.6,32.9,30.2,55.1,32.3c23.5,2.2,44.6-9.2,61.5-24.5
				c17.5-15.8,34.5-36.4,37-60.6c0.3-3.2-4.7-3.2-5,0c-2.3,22.4-18.6,41.1-34.3,56c-15.9,15.1-35.4,25.4-57.7,24.3
				c-44.7-2.3-72.2-48.3-65.7-89.9C108.7,324.7,103.9,323.3,103.4,326.5L103.4,326.5z"/>
		</g>
	</g>
	<g>
		<g>
			<path fill="#6ECEE9" d="M413.8,195.7c4-12.9,15.9-20.6,28.9-21.9c15.1-1.5,31,5.1,44.3,11.7c12.5,6.2,23.9,14.7,32,26.2
				c7.4,10.7,10.9,23.6,11.8,36.4c1.7,26-8.1,52.7-24.9,72.3c-8.9,10.4-20.4,18.3-34,20.9c-12.8,2.4-30.3-1.7-36.6-14.3
				c-1.4-2.9-5.7-0.4-4.3,2.5c5,10.1,17.1,15.8,27.9,17c12.4,1.4,24.3-2,34.8-8.7c21-13.4,34.3-38.1,39.7-61.8
				c5.4-23.6,2.7-49.7-11.9-69.6c-7.5-10.2-17.9-17.9-29-23.9c-11.7-6.3-25.3-11.9-38.6-13.4c-19-2.2-38.8,5.8-44.8,25.3
				C408.1,197.5,412.9,198.8,413.8,195.7L413.8,195.7z"/>
		</g>
	</g>
	<g>
		<g>
			<path fill="#6ECEE9" d="M427.8,331.5c6.6,42.3-21.1,86.7-65.7,89.9c-22.3,1.6-41.9-9.6-57.7-24.3c-15.8-14.7-32-33.7-34.3-56
				c-0.3-3.2-5.3-3.2-5,0c2.5,23.9,18.9,43.6,35.8,59.5c17.2,16.3,38.6,27.4,62.7,25.6c47.5-3.5,76-51.8,69.1-96.2
				C432.1,327,427.3,328.3,427.8,331.5L427.8,331.5z"/>
		</g>
	</g>
	<g>
		<g>
			<path fill="#6ECEE9" d="M376.7,104.1c6.8,14.8,14.5,31.1,30.1,38.4c13.8,6.5,28.4,1.8,35.5-11.6c5.8-10.9,6.8-29.4-4.2-37.6
				c-9.4-7-24.9,0.1-23.5,12.4c0.4,3.2,5.4,3.2,5,0c-0.6-5,2.6-8.5,7.2-10c5.8-1.9,10.2,2.3,12.6,7.1c5.1,10.1,1.2,24.5-6.3,32.2
				c-8.9,9.3-23.5,5-32.1-2.2c-9.6-8-14.9-20.3-20-31.4C379.7,98.7,375.4,101.2,376.7,104.1L376.7,104.1z"/>
		</g>
	</g>
	<g>
		<g>
			<path fill="#6ECEE9" d="M130.1,90.9c-0.8,12.5-1.8,25.2-7.3,36.7c-4.9,10.3-16.1,19.3-28,16.2c-11.5-3.1-18.7-17.3-18-28.4
				c0.3-5.4,3.5-9.7,8.7-11c4.6-1.1,9.2,1.2,10.4,5.8c0.8,3.1,5.6,1.8,4.8-1.3c-2.8-10.9-16.5-12.2-24-5.3
				c-11.1,10.3-2.8,29.6,5.8,38.3c11,11.2,26.3,8.7,37-1.3c13.2-12.4,14.4-32.7,15.6-49.6C135.3,87.7,130.3,87.7,130.1,90.9
				L130.1,90.9z"/>
		</g>
	</g>
	<g>
		<g>
			<path fill="#6ECEE9" d="M121.7,67.7c-12.3-13-28.5-11.6-44.6-8C61,63.4,47.2,71.5,39.6,86.5c-14.6,28.8,2.5,61.7,29.7,75.1
				c2.9,1.4,5.4-2.9,2.5-4.3c-24.2-11.9-39-38.5-29.4-64.9c5.1-14.1,17.1-22.4,31-26.6c15.3-4.6,32.7-7.3,44.8,5.4
				C120.4,73.6,123.9,70,121.7,67.7L121.7,67.7z"/>
		</g>
	</g>
	<g>
		<g>
			<path fill="#6ECEE9" d="M396.2,72.2c11.8-12.5,28-9.7,43.1-5.8c14.2,3.7,25.5,11.5,31.8,25c12.3,26.3-4.4,55.1-28.5,67
				c-2.9,1.4-0.4,5.7,2.5,4.3c27.4-13.6,42.9-44.7,30.3-73.8c-6.7-15.4-20.8-23.7-36.5-27.7c-16.4-4.2-33.6-5.7-46.3,7.6
				C390.4,71,393.9,74.6,396.2,72.2L396.2,72.2z"/>
		</g>
	</g>
</g>
</svg>
