<?xml version="1.0" encoding="utf-8"?>
<!-- Generator: Adobe Illustrator 18.0.0, SVG Export Plug-In . SVG Version: 6.00 Build 0)  -->
<!DOCTYPE svg PUBLIC "-//W3C//DTD SVG 1.1//EN" "http://www.w3.org/Graphics/SVG/1.1/DTD/svg11.dtd">
<svg version="1.1" xmlns="http://www.w3.org/2000/svg" xmlns:xlink="http://www.w3.org/1999/xlink" x="0px" y="0px"
	 viewBox="0 0 550 550" enable-background="new 0 0 550 550" xml:space="preserve">
<g id="Layer_3">
	<g id="Layer_1">
		
			<text transform="matrix(0.9201 0 0 1 138.9727 134.8833)" fill="#DE3A51" stroke="#DE3A51" stroke-width="3" font-family="'Coquette'" font-size="156.519">AH</text>
	</g>
</g>
<g id="Layer_2">
	<g>
		<g>
			<path fill="#B4E2F2" d="M164.1,161.6c-5.1,24-12.4,48.1-23.4,70.1c-10.1,20-27.3,40.1-51.6,40.3c-21.8,0.2-38.1-22.7-30.7-43
				c3.7-10,13.3-17.4,24-17.3c10.2,0.1,18.9,7.6,23,16.5c1.3,2.9,5.6,0.4,4.3-2.5c-4.4-9.8-13.3-16.9-24-18.7
				c-10.8-1.8-20.8,3.6-27.3,11.9C43.9,237.8,53.7,264,74,273.6c23.7,11.2,48.7-6.2,62.2-24.9c8.3-11.4,13.8-24.6,18.7-37.7
				c5.5-14.5,9.8-29.4,13.2-44.5c0.3-1.2,0.5-2.4,0.8-3.6C169.6,159.7,164.8,158.4,164.1,161.6L164.1,161.6z"/>
		</g>
	</g>
	<g>
		<g>
			<path fill="#B4E2F2" d="M365.1,162.9c6,28.4,14.8,58.5,30.8,83.1c13,20,37.6,37.9,62.3,28.5c21.5-8.2,31.2-34.3,18.6-53.8
				c-12.7-19.8-40.1-17-51.3,2.6c-0.4,0.8-0.9,1.7-1.2,2.5c-1.3,2.9,3,5.5,4.3,2.5c4.2-9.3,12.6-15.9,23-16.5
				c10.9-0.7,20.1,7.7,24,17.3c8.7,20.8-9.8,42.4-30.7,43c-24.1,0.7-41.6-21-51.6-40.3c-11.3-21.8-18.4-46.2-23.4-70.1
				C369.2,158.4,364.4,159.7,365.1,162.9L365.1,162.9z"/>
		</g>
	</g>
	<g>
		<g>
			<path fill="#B4E2F2" d="M310.8,161c-14.7,24.5-20.6,54.5-24.3,82.5c-3.4,26.4-2.7,55.5,15.1,76.9c13.6,16.4,37.3,25.3,56.3,12.9
				c16.4-10.7,32.6-45.1,12.6-59.7c-11.1-8.1-26.5-5.4-38,0.2c-2.9,1.4-0.4,5.7,2.5,4.3c8.7-4.3,19.9-6.6,29.1-2.5
				c14.2,6.2,10.8,24.4,5.6,35.6c-5.3,11.5-15.2,21.4-28.1,23c-11.3,1.4-22.3-4.1-30.7-11.3c-21.6-18.6-23-49.5-20-75.8
				c1.7-14.6,4.7-29.2,8.3-43.4c3.5-14,8.3-27.7,15.8-40.1C316.8,160.7,312.5,158.2,310.8,161L310.8,161z"/>
		</g>
	</g>
	<g>
		<g>
			<path fill="#B4E2F2" d="M205.6,163.5c14.5,24.2,20.2,54.1,23.9,81.8c3.5,26.7,2,56.9-18.8,76.6c-8.2,7.7-19.1,12.8-30.4,12.3
				c-13.1-0.6-22.9-10.8-28.7-21.7c-6-11.4-9.3-29,3.9-36.5c9-5.1,21.5-2.2,30.1,2c2.9,1.4,5.4-2.9,2.5-4.3
				c-16.9-8.3-43.1-8-46.7,15.2c-1.8,11.8,3.9,25.4,11,34.6c7,8.9,16.3,14.8,27.7,15.8c21.6,1.8,41.6-16.9,49.2-35.7
				c10.9-27.3,6-57.6,0.3-85.6c-4-19.8-9.4-39.5-19.8-57C208.3,158.2,204,160.7,205.6,163.5L205.6,163.5z"/>
		</g>
	</g>
	<g>
		<g>
			<path fill="#B4E2F2" d="M131.4,184.7c-3.2-10.5-11.2-18.8-21.4-22.8c-13.2-5.1-27.2-2.7-40.2,1.7c-24.1,8.1-47.4,22.3-58.3,46.2
				c-10.2,22.3-8.2,48.8,0.1,71.4c8.3,22.7,24.9,45.1,48.3,53.4c16.4,5.8,41.2,2.4,49.6-14.7c1.4-2.9-2.9-5.4-4.3-2.5
				c-6,12.1-21.8,15.7-34.2,14.6c-14-1.3-26.1-10-35.3-20c-18-19.5-27.2-47.2-25.9-73.5c0.6-12.5,4.3-24.6,10.9-35.2
				c7.5-11.8,19.1-20.3,31.4-26.7c13.3-7,28.7-12.8,43.8-12.5c13.6,0.3,26.7,8.8,30.8,22.1C127.5,189.1,132.3,187.8,131.4,184.7
				L131.4,184.7z"/>
		</g>
	</g>
	<g>
		<g>
			<path fill="#B4E2F2" d="M102,317.6c-3.5,22.2,1.4,45.1,14,63.8c12.5,18.6,32.9,30.2,55.1,32.3c23.5,2.2,44.6-9.2,61.5-24.5
				c17.5-15.8,34.5-36.4,37-60.6c0.3-3.2-4.7-3.2-5,0c-2.3,22.4-18.6,41.1-34.3,56c-15.9,15.1-35.4,25.4-57.7,24.3
				c-44.7-2.3-72.2-48.3-65.7-89.9C107.3,315.8,102.5,314.5,102,317.6L102,317.6z"/>
		</g>
	</g>
	<g>
		<g>
			<path fill="#B4E2F2" d="M412.4,186.8c4-12.9,15.9-20.6,28.9-21.9c15.1-1.5,31,5.1,44.3,11.7c12.5,6.2,23.9,14.7,32,26.2
				c7.4,10.7,10.9,23.6,11.8,36.4c1.7,26-8.1,52.7-24.9,72.3c-8.9,10.4-20.4,18.3-34,20.9c-12.8,2.4-30.3-1.7-36.6-14.3
				c-1.4-2.9-5.7-0.4-4.3,2.5c5,10.1,17.1,15.8,27.9,17c12.4,1.4,24.3-2,34.8-8.7c21-13.4,34.3-38.1,39.7-61.8
				c5.4-23.6,2.7-49.7-11.9-69.6c-7.5-10.2-17.9-17.9-29-23.9c-11.7-6.3-25.3-11.9-38.6-13.4c-19-2.2-38.8,5.8-44.8,25.3
				C406.7,188.6,411.5,189.9,412.4,186.8L412.4,186.8z"/>
		</g>
	</g>
	<g>
		<g>
			<path fill="#B4E2F2" d="M434.6,319.7c6.6,42.3-21.1,86.7-65.7,89.9c-22.3,1.6-41.9-9.6-57.7-24.3c-15.8-14.7-32-33.7-34.3-56
				c-0.3-3.2-5.3-3.2-5,0c2.5,23.9,18.9,43.6,35.8,59.5c17.2,16.3,38.6,27.4,62.7,25.6c47.5-3.5,76-51.8,69.1-96.2
				C438.9,315.2,434.1,316.6,434.6,319.7L434.6,319.7z"/>
		</g>
	</g>
</g>
<g id="Layer_5">
	<g>
		<g>
			<path fill="#B4E2F2" d="M375.3,95.2c6.8,14.8,14.5,31.1,30.1,38.4c13.8,6.5,28.4,1.8,35.5-11.6c5.8-10.9,6.8-29.4-4.2-37.6
				c-9.4-7-24.9,0.1-23.5,12.4c0.4,3.2,5.4,3.2,5,0c-0.6-5,2.6-8.5,7.2-10c5.8-1.9,10.2,2.3,12.6,7.1c5.1,10.1,1.2,24.5-6.3,32.2
				c-8.9,9.3-23.5,5-32.1-2.2c-9.6-8-14.9-20.3-20-31.4C378.3,89.8,374,92.3,375.3,95.2L375.3,95.2z"/>
		</g>
	</g>
	<g>
		<g>
			<path fill="#B4E2F2" d="M121.7,81c-0.8,12.5-1.8,25.2-7.3,36.7c-4.9,10.3-16.1,19.3-28,16.2c-11.5-3.1-18.7-17.3-18-28.4
				c0.3-5.4,3.5-9.7,8.7-11c4.6-1.1,9.2,1.2,10.4,5.8c0.8,3.1,5.6,1.8,4.8-1.3c-2.8-10.9-16.5-12.2-24-5.3
				c-11.1,10.3-2.8,29.6,5.8,38.3c11,11.2,26.3,8.7,37-1.3c13.2-12.4,14.4-32.7,15.6-49.6C126.9,77.8,121.9,77.8,121.7,81L121.7,81z
				"/>
		</g>
	</g>
	<g>
		<g>
			<path fill="#DE3A51" d="M92.7,401.7c-1-0.2-1.9-0.7-2.6-1.2c-1.3-1-1.7-2.4-1.1-3.5c-1.9,0.3-3.8-0.3-5.4-1.6
				c-2.9-2.4-3.1-5.7-0.9-7.5c2.2-1.9,6.1-1.8,8.9,0.5c1.5,1.2,2.2,2.6,2.1,4.1c0.5-0.4,0.7-0.7,1.2-1.1c0.8,0.6,1.2,0.9,2,1.5
				c-2,1.9-3.1,2.9-5.1,4.8c-0.6,0.6-0.5,1.4,0.3,2c0.6,0.4,1.2,0.7,1.9,0.7C93.5,400.9,93.2,401.2,92.7,401.7z M91.8,394.1
				c0.1-0.1,0.2-0.5,0.2-0.6c0.4-1.2-0.2-2.7-1.5-3.7c-1.8-1.5-4.5-1.6-5.9-0.3c-1.4,1.2-1.2,3.5,0.7,5c1.3,1,3.1,1.4,4.5,1.1
				c0.1,0,0.6-0.2,0.7-0.2C91,394.9,91.3,394.6,91.8,394.1z"/>
			<path fill="#DE3A51" d="M101,408.3c-1.6-1.1-2.5-2.6-2.5-4.1c-2.3,2.3-3.4,3.4-5.7,5.7c-0.9-0.6-1.3-0.9-2.2-1.6
				c4.7-4.6,7-6.9,11.6-11.5c0.8,0.6,1.2,0.9,2.1,1.5c-0.5,0.5-0.7,0.7-1.2,1.2c1.8-0.3,3.6,0.1,5.1,1.2c3,2,3.6,5.2,1.6,7.3
				C108,410,104.1,410.4,101,408.3z M106.6,401.7c-1.4-1-3.2-1.2-4.6-0.7c-0.1,0-0.6,0.2-0.7,0.3c-0.5,0.5-0.7,0.7-1.1,1.1
				c-0.1,0.1-0.2,0.5-0.2,0.6c-0.3,1.3,0.4,2.7,1.8,3.7c2,1.3,4.7,1.2,5.9-0.1C109,405.2,108.5,403,106.6,401.7z"/>
			<path fill="#DE3A51" d="M125.2,422.3c-1-0.1-1.9-0.4-2.7-0.8c-1.5-0.8-2.1-2.2-1.6-3.3c-1.8,0.5-3.8,0.2-5.5-0.8
				c-3.2-1.9-3.9-5.1-2.1-7.2c1.9-2.1,5.6-2.5,8.7-0.7c1.6,0.9,2.6,2.2,2.7,3.7c0.4-0.5,0.6-0.8,1-1.3c0.9,0.5,1.3,0.7,2.2,1.2
				c-1.7,2.1-2.5,3.2-4.2,5.4c-0.5,0.6-0.3,1.4,0.6,2c0.6,0.3,1.3,0.5,2,0.4C125.8,421.4,125.6,421.7,125.2,422.3z M123.1,415
				c0.1-0.1,0.1-0.5,0.1-0.6c0.1-1.2-0.6-2.6-2-3.4c-2-1.2-4.6-0.9-5.8,0.5c-1.2,1.4-0.6,3.6,1.5,4.8c1.4,0.8,3.2,1,4.6,0.4
				c0.1,0,0.6-0.3,0.6-0.3C122.5,415.8,122.7,415.5,123.1,415z"/>
			<path fill="#DE3A51" d="M137.5,421.5c-0.7-0.4-1.1-1-1-1.6c-1-0.2-2,0.1-2.7,0.6c-0.1,0.1-0.4,0.3-0.4,0.3
				c-1.3,1.8-1.9,2.6-3.2,4.4c-0.9-0.5-1.4-0.7-2.3-1.2c2.3-3.1,3.5-4.7,5.8-7.8c0.9,0.5,1.3,0.7,2.2,1.2c-0.4,0.5-0.6,0.8-1,1.4
				c1.3-0.5,2.9-0.6,4.3,0.1c1,0.5,1.5,1.5,1,2.3C139.7,421.8,138.5,422,137.5,421.5z"/>
			<path fill="#DE3A51" d="M150.3,426.3c-1.4-0.6-2.1-0.9-3.5-1.6c-1,1.5-1.5,2.3-2.5,3.8c-0.5,0.8-0.4,1.6,0.8,2.2
				c0.7,0.3,1.4,0.4,2.2,0.3c-0.4,0.6-0.6,0.9-1,1.5c-0.9,0-1.8-0.2-2.6-0.6c-2.4-1.1-2.9-2.8-1.8-4.4c1.1-1.6,1.6-2.4,2.6-4
				c-1.4-0.7-2.1-1-3.6-1.7c0.4-0.6,0.6-0.9,1.1-1.6c1.4,0.7,2.1,1,3.5,1.7c1.2-1.8,1.8-2.7,3-4.6c0.9,0.4,1.3,0.6,2.2,1
				c-1.2,1.8-1.8,2.7-3,4.6c1.4,0.6,2.1,0.9,3.5,1.6C150.9,425.4,150.7,425.7,150.3,426.3z"/>
			<path fill="#DE3A51" d="M172.2,442.7c-0.9,0.1-1.9-0.1-2.8-0.4c-2.1-0.7-2.7-2.4-2-3.8c0.6-1.1,0.8-1.7,1.4-2.8
				c0.6-1.2,0.1-2.3-1.5-2.9c-1.6-0.6-3.5,0-4.2,1.4c-1,1.9-1.5,2.8-2.5,4.7c-1-0.4-1.5-0.6-2.4-0.9c1.1-2.1,1.7-3.1,2.8-5.1
				c0.6-1.1,0.2-2.3-1.4-3c-1.6-0.6-3.5-0.1-4.3,1.3c-1.1,1.8-1.6,2.8-2.7,4.6c-1-0.4-1.5-0.6-2.4-1c2-3.3,3-5,4.9-8.3
				c0.9,0.4,1.4,0.6,2.3,1c-0.3,0.5-0.4,0.7-0.7,1.2c1.2-0.6,2.8-0.6,4.2-0.1c1.7,0.7,2.8,1.9,3,3.3c1.2-0.8,3-1,4.7-0.4
				c2.7,1,3.9,3,2.9,5c-0.5,1.1-0.8,1.7-1.4,2.8c-0.3,0.7,0,1.4,1,1.8c0.7,0.2,1.3,0.3,2,0.1C172.6,441.7,172.5,442,172.2,442.7z"/>
			<path fill="#DE3A51" d="M179.1,443.1c0.6,0.6,1.3,1,2.2,1.3c1.3,0.4,2.8,0.6,4.1,0.3c-0.3,0.7-0.4,1.1-0.7,1.8
				c-1.3,0.1-2.8-0.2-4.1-0.6c-3.7-1.1-5.9-4-4.7-6.7c1.1-2.4,4.8-3.6,8.1-2.6c2.1,0.6,3.6,1.9,4.4,3.5
				C184.8,441.4,182.9,442,179.1,443.1z M185.3,439.4c-0.5-0.6-1.2-1-2-1.2c-2.3-0.7-4.4,0.2-5.1,1.7c-0.3,0.6-0.3,1.2-0.1,1.8
				C181,440.8,182.5,440.4,185.3,439.4z"/>
			<path fill="#DE3A51" d="M204.5,451.6c-0.9,0.2-1.9,0.1-2.8-0.1c-2.2-0.5-3-2.1-2.6-3.6c0.4-1.2,0.6-1.8,1-2.9
				c0.4-1.2-0.2-2.3-1.9-2.8c-1.6-0.4-3.4,0.4-4,1.9c-0.7,2-1.1,2.9-1.8,4.9c-1-0.3-1.5-0.4-2.5-0.7c1.3-3.5,2-5.3,3.4-8.8
				c1,0.3,1.5,0.4,2.4,0.6c-0.2,0.5-0.3,0.8-0.5,1.3c1.1-0.8,2.6-1,4.1-0.6c2.8,0.7,4.1,2.6,3.4,4.6c-0.4,1.2-0.6,1.7-1,2.9
				c-0.2,0.7,0.2,1.4,1.3,1.7c0.7,0.2,1.3,0.1,2-0.1C204.8,450.6,204.7,450.9,204.5,451.6z"/>
			<path fill="#DE3A51" d="M217.5,446.9c-1.5-0.3-2.3-0.4-3.8-0.7c-0.5,1.7-0.7,2.6-1.2,4.3c-0.2,0.8,0.1,1.7,1.4,1.9
				c0.8,0.1,1.4,0.1,2.1-0.2c-0.2,0.7-0.3,1-0.4,1.7c-0.9,0.2-1.7,0.2-2.7,0c-2.6-0.5-3.5-2-3-3.8c0.5-1.8,0.8-2.7,1.3-4.4
				c-1.6-0.3-2.3-0.5-3.9-0.8c0.2-0.7,0.3-1,0.5-1.7c1.5,0.3,2.3,0.5,3.9,0.8c0.6-2,0.9-3,1.5-5.1c1,0.2,1.5,0.3,2.4,0.5
				c-0.6,2-0.8,3-1.4,5.1c1.5,0.3,2.3,0.4,3.8,0.7C217.8,445.8,217.7,446.2,217.5,446.9z"/>
			<path fill="#DE3A51" d="M244.3,457.8c-0.9,0.3-1.9,0.4-2.8,0.3c-2.2-0.2-3.4-1.7-3.1-3.2c0.2-1.2,0.3-1.8,0.5-3
				c0.2-1.2-0.6-2.3-2.4-2.5c-1.5-0.2-3.3,0.7-3.6,2.4c-0.4,2-0.6,3-0.9,4.9c-1-0.1-1.6-0.2-2.6-0.4c1.5-7.3,2.2-11,3.6-18.3
				c1,0.1,1.4,0.2,2.4,0.3c-0.8,4.2-1.2,6.3-2,10.6c1-0.9,2.4-1.3,3.9-1.1c2.9,0.3,4.4,2.1,4.1,4.2c-0.2,1.2-0.3,1.8-0.4,3
				c-0.1,0.8,0.5,1.4,1.5,1.5c0.7,0.1,1.4,0,2-0.3C244.4,456.8,244.4,457.1,244.3,457.8z"/>
			<path fill="#DE3A51" d="M253,459c-3.7-0.2-6.5-2.7-6.2-5.3c0.3-2.7,3.5-4.6,7.1-4.3c3.6,0.2,6.3,2.6,6.1,5.2
				C259.9,457.2,256.7,459.3,253,459z M257.7,453.5c-0.4,0.2-0.9,0.3-1.4,0.3c-1.1-0.1-2.1-0.8-2-1.6c0-0.3,0.2-0.7,0.6-0.9
				c-0.4-0.1-0.8-0.2-1.2-0.2c-2.4-0.2-4.5,1.1-4.7,2.9c-0.2,1.7,1.6,3.3,4.1,3.5c2.4,0.2,4.5-1.1,4.6-2.9
				C257.9,454.2,257.8,453.8,257.7,453.5z"/>
			<path fill="#DE3A51" d="M266.1,459.7c-1,0-2.1-0.2-2.9-0.6c0-0.7,0.1-1.1,0.1-1.9c0.6,0.4,1.4,0.7,2.2,0.8c1,0,1.8-0.5,1.8-1.2
				c0-1.5-2.7-2.5-2.6-4.3c0.1-1.2,0.9-2.1,2.4-2.6c0.5,0.6,0.8,0.8,1.4,1.4c-0.7,0.2-1.2,0.7-1.2,1.3c0,1.3,2.7,2.3,2.6,4.4
				C269.9,458.5,268.3,459.7,266.1,459.7z"/>
			<path fill="#DE3A51" d="M283.1,452c-1.5,0-2.3,0.1-3.9,0.1c0,1.7,0,2.6,0.1,4.4c0,0.9,0.6,1.6,1.9,1.6c0.8,0,1.4-0.2,2-0.6
				c0,0.7,0,1,0.1,1.7c-0.8,0.4-1.6,0.6-2.6,0.6c-2.6,0-4-1.3-4-3.1c0-1.8,0-2.7,0-4.6c-1.6,0-2.4,0-4,0c0-0.7,0-1.1,0-1.8
				c1.6,0,2.4,0,3.9,0c0-2.1,0-3.1,0-5.2c1,0,1.5,0,2.5,0c0,2.1,0.1,3.1,0.1,5.2c1.5,0,2.3,0,3.8-0.1
				C283.1,450.9,283.1,451.3,283.1,452z"/>
			<path fill="#DE3A51" d="M288.1,446.4c-1,0-1.9-0.6-2-1.4c0-0.8,0.8-1.5,1.8-1.5c1.1,0,2,0.6,2,1.4
				C290,445.6,289.2,446.3,288.1,446.4z M293.8,458.7c-0.7,0.4-1.7,0.6-2.7,0.7c-2.2,0.1-3.7-1.2-3.8-2.7c-0.1-2.6-0.2-4-0.4-6.6
				c1,0,1.5-0.1,2.5-0.1c0.2,2.6,0.3,3.9,0.4,6.4c0,0.7,0.7,1.3,1.8,1.2c0.7,0,1.3-0.2,1.9-0.6C293.8,457.7,293.8,458,293.8,458.7z"
				/>
			<path fill="#DE3A51" d="M312.1,457.2c-0.7,0.5-1.7,0.7-2.6,0.8c-2.2,0.2-3.8-1-4-2.5c-0.2-1.2-0.2-1.8-0.4-3
				c-0.2-1.3-1.2-2.1-3-1.9c-1.7,0.1-3,1.5-2.8,3c0.2,2,0.3,3.1,0.5,5.1c-1.1,0.1-1.6,0.1-2.6,0.2c-0.4-3.7-0.5-5.5-0.9-9.2
				c1-0.1,1.5-0.1,2.5-0.2c0.1,0.5,0.1,0.8,0.1,1.4c0.6-1,1.9-1.7,3.4-1.9c2.9-0.2,4.9,1.1,5.2,3.2c0.2,1.2,0.3,1.8,0.4,3
				c0.1,0.8,0.8,1.2,2,1.1c0.7-0.1,1.3-0.3,1.8-0.7C311.9,456.1,312,456.5,312.1,457.2z"/>
			<path fill="#DE3A51" d="M328.3,457.1c0.4,1.9-1,4.2-3.8,4.8c-0.5-0.6-0.8-0.9-1.3-1.5c1.6-0.4,2.7-1.8,2.4-3
				c-0.3-1.3-0.4-2-0.7-3.4c-0.8,1.3-2.4,2.2-4.3,2.4c-3.7,0.5-6.8-1.4-7.3-4c-0.4-2.6,1.8-5.1,5.4-5.6c1.9-0.3,3.6,0.1,4.9,1.1
				c-0.1-0.6-0.2-0.9-0.3-1.5c1-0.2,1.5-0.2,2.5-0.4C326.8,450.6,327.3,452.8,328.3,457.1z M324.1,450.4c0-0.1-0.3-0.5-0.4-0.5
				c-0.9-1-2.6-1.6-4.2-1.3c-2.4,0.3-3.9,2-3.6,3.7c0.3,1.7,2.5,2.9,4.9,2.6c1.7-0.2,3.1-1.2,3.5-2.5c0-0.1,0.1-0.5,0.1-0.6
				C324.3,451.3,324.2,451,324.1,450.4z"/>
			<path fill="#DE3A51" d="M350.6,451c-3.6,0.9-7.2-0.6-8-3.2c-1.6-5.4-2.5-8.1-4.1-13.6c0.9-0.2,1.4-0.3,2.4-0.5
				c1.7,5.4,2.6,8.1,4.3,13.5c0.5,1.6,2.8,2.5,5.1,2c2.3-0.6,3.6-2.4,3-4c-0.3-0.8-1.1-1.8-2.3-1.9c0,0.1-0.1,0.1-0.1,0.2
				c-0.1,0.5-0.7,0.9-1.3,1.1c-1.1,0.3-2.4-0.2-2.7-1.1c-0.3-0.9,0.6-1.9,1.9-2.2c3.4-0.8,6,1.1,6.8,3.3
				C356.4,447.2,354.2,450.1,350.6,451z"/>
			<path fill="#DE3A51" d="M377.6,442.7c-0.6,0.6-1.5,1.1-2.3,1.4c-1.6,0.5-3.2,0.1-4.1-0.8c-0.5,1.5-1.9,2.7-3.9,3.2
				c-3.6,1.1-7-0.3-8-2.8c-1-2.5,0.7-5.3,4.2-6.3c1.8-0.5,3.6-0.4,5.1,0.3c-0.3-0.6-0.4-0.9-0.6-1.4c1-0.3,1.4-0.5,2.4-0.8
				c1.1,2.4,1.6,3.6,2.7,6c0.3,0.7,1.2,1,2.2,0.7c0.7-0.2,1.2-0.6,1.5-1.1C377.1,441.8,377.3,442.1,377.6,442.7z M369.5,439.8
				c0-0.1-0.4-0.4-0.5-0.4c-1.1-0.8-2.8-1.1-4.4-0.6c-2.3,0.7-3.5,2.6-2.8,4.2c0.6,1.6,3,2.5,5.4,1.8c1.6-0.5,2.8-1.6,3-2.8
				c0-0.1,0.1-0.6,0-0.6C369.9,440.8,369.8,440.5,369.5,439.8z"/>
			<path fill="#DE3A51" d="M383.9,433.9c-0.8,0.3-1.6,0.2-2.1-0.2c-0.7,0.6-1,1.5-1,2.2c0,0.1,0,0.4,0.1,0.5c1,1.9,1.4,2.8,2.4,4.7
				c-1,0.4-1.5,0.5-2.5,0.9c-1.7-3.4-2.5-5.1-4.2-8.5c1-0.3,1.4-0.5,2.4-0.8c0.3,0.6,0.4,0.9,0.7,1.5c0.2-1.2,1.1-2.4,2.5-2.9
				c1.1-0.4,2.3-0.1,2.8,0.7C385.5,432.6,384.9,433.5,383.9,433.9z"/>
			<path fill="#DE3A51" d="M396.8,429.7c-0.9,0.4-2.1,0.2-2.5-0.5c-0.1-0.2-0.1-0.4-0.1-0.6c-0.4,0-0.8,0.1-1.1,0.3
				c-2.1,0.9-2.8,2.7-2,4.2c0.9,1.7,3.7,2,6,1.1c1.2-0.5,2.5-1.3,3.2-2.2c0.4,0.7,0.6,1,1.1,1.7c-0.8,0.9-2.1,1.6-3.3,2.1
				c-3.6,1.5-7.7,0.8-9.1-1.8c-1.3-2.4,0.2-5.4,3.4-6.7c1.8-0.7,4.6-1.3,5.6,0.3C398.3,428.3,397.9,429.2,396.8,429.7z"/>
			<path fill="#DE3A51" d="M408.4,428.6c0.9,0,1.8-0.2,2.6-0.6c1.2-0.6,2.4-1.4,3-2.4c0.5,0.7,0.7,1,1.1,1.6c-0.8,0.9-2,1.7-3.2,2.3
				c-3.5,1.7-7.6,1.2-9.2-1.3c-1.4-2.3-0.1-5.4,3.1-6.9c2-0.9,4.1-1.1,6.1-0.6C410.6,423.8,409.9,425.4,408.4,428.6z M409.1,422.2
				c-0.8-0.1-1.7,0.1-2.4,0.5c-2.1,1-2.8,2.9-1.8,4.4c0.3,0.5,0.9,0.9,1.6,1.2C407.6,425.9,408.1,424.7,409.1,422.2z"/>
			<path fill="#DE3A51" d="M425.6,421.9c-0.4,0.7-1.2,1.3-2,1.7c-2,1-4,0.5-4.9-0.8c-4-5.4-6-8.2-9.9-13.6c0.9-0.4,1.3-0.7,2.1-1.1
				c4,5.4,6,8,10,13.4c0.5,0.6,1.4,0.8,2.4,0.3c0.6-0.3,1.1-0.8,1.3-1.3C424.9,421,425.2,421.3,425.6,421.9z"/>
			<path fill="#DE3A51" d="M433.6,418c-3.2,1.9-7.3,1.5-9-0.7c-1.7-2.2-0.6-5.5,2.4-7.3s7-1.5,8.9,0.6
				C437.8,412.8,436.8,416.1,433.6,418z M433.2,411.1c-0.1,0.4-0.4,0.7-0.9,1c-1,0.6-2.3,0.5-2.8-0.2c-0.2-0.3-0.3-0.6-0.2-1
				c-0.4,0.1-0.8,0.3-1.1,0.5c-2,1.2-2.7,3.4-1.6,4.8c1.2,1.5,3.8,1.6,5.9,0.4c2.1-1.2,2.8-3.4,1.6-4.8
				C433.8,411.5,433.5,411.3,433.2,411.1z"/>
			<path fill="#DE3A51" d="M455.7,402.9c-0.3,0.8-1,1.4-1.8,2c-1.8,1.3-4,1-5.1-0.2c-0.9-0.9-1.4-1.4-2.3-2.4c-1-1-2.4-1.2-3.9-0.2
				c-1.4,0.9-1.7,2.7-0.6,3.9c1.5,1.6,2.2,2.4,3.7,4c-0.9,0.6-1.3,0.9-2.2,1.4c-2.7-2.9-4-4.4-6.7-7.3c0.8-0.5,1.3-0.8,2.1-1.4
				c0.4,0.4,0.6,0.6,1,1.1c-0.1-1.2,0.6-2.4,1.8-3.3c2.4-1.6,5.1-1.5,6.6,0.1c0.9,0.9,1.4,1.4,2.3,2.3c0.6,0.6,1.5,0.6,2.4,0
				c0.6-0.4,0.9-0.9,1.1-1.5C454.9,402.1,455.1,402.4,455.7,402.9z"/>
			<path fill="#DE3A51" d="M471,390.9c-0.3,0.8-0.9,1.5-1.6,2.1c-1.3,1.1-3,1.3-4.3,0.7c0.2,1.6-0.6,3.2-2.3,4.4
				c-3,2.3-6.9,2.2-8.9,0.2c-2.1-2-1.7-5.2,1.1-7.4c1.5-1.1,3.2-1.7,5-1.5c-0.5-0.4-0.7-0.7-1.2-1.1c0.8-0.6,1.2-1,2-1.6
				c2.1,1.8,3.2,2.8,5.3,4.6c0.6,0.5,1.6,0.5,2.5-0.2c0.6-0.5,0.9-1,1-1.6C470.1,390.2,470.4,390.4,471,390.9z M461.9,391.2
				c-0.1-0.1-0.6-0.2-0.7-0.2c-1.4-0.4-3.2,0-4.5,1c-1.9,1.5-2.2,3.7-0.8,5c1.3,1.3,4,1.3,6-0.2c1.3-1,1.9-2.5,1.6-3.7
				c0-0.1-0.2-0.5-0.2-0.6C462.7,391.9,462.5,391.7,461.9,391.2z"/>
		</g>
	</g>
	<g>
		<g>
			<path fill="#B6E3F1" d="M129.8,68.8c-12.3-13-28.5-11.6-44.6-8c-16.1,3.6-29.9,11.7-37.5,26.8c-14.6,28.8,2.5,61.7,29.7,75.1
				c2.9,1.4,5.4-2.9,2.5-4.3c-24.2-11.9-39-38.5-29.4-64.9c5.1-14.1,17.1-22.4,31-26.6c15.3-4.6,32.7-7.3,44.8,5.4
				C128.4,74.7,132,71.1,129.8,68.8L129.8,68.8z"/>
		</g>
	</g>
	<g>
		<g>
			<path fill="#B6E3F1" d="M384,72.3c11.8-12.5,28-9.7,43.1-5.8c14.2,3.7,25.5,11.5,31.8,25c12.3,26.3-4.4,55.1-28.5,67
				c-2.9,1.4-0.4,5.7,2.5,4.3c27.4-13.6,42.9-44.7,30.3-73.8c-6.7-15.4-20.8-23.7-36.5-27.7c-16.4-4.2-33.6-5.7-46.3,7.6
				C378.3,71.1,381.8,74.7,384,72.3L384,72.3z"/>
		</g>
	</g>
</g>
</svg>
