<?xml version="1.0" encoding="utf-8"?>
<!-- Generator: Adobe Illustrator 17.1.0, SVG Export Plug-In . SVG Version: 6.00 Build 0)  -->
<!DOCTYPE svg PUBLIC "-//W3C//DTD SVG 1.1//EN" "http://www.w3.org/Graphics/SVG/1.1/DTD/svg11.dtd">
<svg version="1.1" xmlns="http://www.w3.org/2000/svg" xmlns:xlink="http://www.w3.org/1999/xlink" x="0px" y="0px"
	 viewBox="0 55 200 90" enable-background="new 0 55 200 90" xml:space="preserve">
<g id="Layer_1">
	<g id="Layer_1_1_">
		<ellipse fill="#FFD025" stroke="#000000" stroke-miterlimit="10" cx="40.2" cy="103.4" rx="24.2" ry="32.1"/>
		<path fill="#FFFFFF" stroke="#000000" stroke-miterlimit="10" d="M48.4,103.3c2.1-2.1,3.3-5.1,3.3-8.3c0-6.6-5.2-11.9-11.7-11.9
			S28.4,88.4,28.4,95c0,3.4,1.4,6.5,3.7,8.7c-2.1,2.1-3.3,5.1-3.3,8.3c0,6.6,5.2,11.9,11.7,11.9s11.7-5.3,11.7-11.9
			C52.1,108.6,50.7,105.4,48.4,103.3z"/>
		<path fill="#FFD025" stroke="#000000" stroke-miterlimit="10" d="M181.7,109.4H62.4c-3.1,0-5.7-2.7-5.7-6l0,0c0-3.3,2.6-6,5.7-6
			h119.3c3.1,0,5.7,2.7,5.7,6l0,0C187.4,106.6,184.9,109.4,181.7,109.4z"/>
		<path fill="#E39925" stroke="#000000" stroke-miterlimit="10" d="M147.3,110.9L147.3,110.9c-0.9,0-1.5-0.7-1.5-1.6V97.3
			c0-0.9,0.7-1.6,1.5-1.6l0,0c0.9,0,1.5,0.7,1.5,1.6v12.1C148.8,110.3,148.1,110.9,147.3,110.9z"/>
	</g>
	<g id="Layer_2">
		<path fill="#E39925" stroke="#000000" stroke-miterlimit="10" d="M175.6,92.9v-4.1h3.2v-7.2h-6.3c0,2.2-1.7,4-3.8,4
			c-2.1,0-3.8-1.8-3.8-4h-6.4v7.1h3.5v4.1h-3.5v4.5h20.3v-4.5L175.6,92.9L175.6,92.9z"/>
	</g>
</g>
<g id="Layer_2_1_">
	<ellipse cx="40.1" cy="96.2" rx="11.7" ry="13.1"/>
	<ellipse cx="40.3" cy="110.6" rx="11.7" ry="13.3"/>
</g>
</svg>
