<?xml version="1.0" encoding="utf-8"?>
<!-- Generator: Adobe Illustrator 18.0.0, SVG Export Plug-In . SVG Version: 6.00 Build 0)  -->
<!DOCTYPE svg PUBLIC "-//W3C//DTD SVG 1.1//EN" "http://www.w3.org/Graphics/SVG/1.1/DTD/svg11.dtd">
<svg version="1.1" id="Layer_1" xmlns="http://www.w3.org/2000/svg" xmlns:xlink="http://www.w3.org/1999/xlink" x="0px" y="0px"
	 viewBox="0 0 155 155" enable-background="new 0 0 155 155" xml:space="preserve">
<circle fill="#51C1CC" cx="77.9" cy="77.1" r="75"/>
<circle fill="none" stroke="#10919D" stroke-width="7" stroke-miterlimit="10" cx="77.9" cy="77.1" r="64"/>
<circle fill="#10919D" cx="55.7" cy="55.5" r="12.5"/>
<circle fill="#10919D" cx="99.5" cy="98.7" r="12.5"/>
<circle fill="#10919D" cx="56.3" cy="98.7" r="12.5"/>
<circle fill="#10919D" cx="98.9" cy="55.5" r="12.5"/>
<g>
	<g>
		<path fill="#FBFAF2" d="M20.4,91.2c2-0.3,3.4-1.5,3.4-2.7c0-2.5-5.5-2.1-9.4-1.4c0-0.1,0-0.2,0-0.4c3.4-0.8,6.8-1.6,8.7-1.9
			c3.8-0.5,5.4,0.5,5.4,2.1c0,1.2-1,2.6-2.8,3.6c2.5,0,4,0.6,4,2.1c0,3.2-4.8,4.7-7.5,5c-2,0.2-5.4,0.3-6.8,0.1c0-4.1,0-6.2,0-10.3
			c1.2-0.2,4.2-0.2,5.2,0.1C20.4,88.9,20.4,89.6,20.4,91.2z M20.4,97.3c5.3-0.8,5.1-6.6,0-5.8C20.4,93.9,20.4,95,20.4,97.3z"/>
		<path fill="#FBFAF2" d="M46.5,88.6c-1.6,2.1-3.5,3.6-5.4,4.3c-2,0.7-2.7-0.3-3-1.2c-0.9,1.5-2,2.8-3.8,3.3
			c-2.4,0.7-3.9-0.5-3.9-3.2c0-2.9,2.5-5.4,8.3-7.3c1.2-0.4,3.1-0.9,4.3-1c0,2.3,0,3.5,0,5.8c0,1,0.4,1.1,0.9,0.9
			c0.9-0.4,1.7-1.1,2.5-1.9C46.5,88.4,46.5,88.4,46.5,88.6z M38,85.3c-1.8,0.6-3,2.1-3,4.8c0,1.6,0.7,2.7,1.8,2.4
			c0.4-0.1,0.7-0.4,1.2-0.9C38,89,38,87.7,38,85.3z"/>
		<path fill="#FBFAF2" d="M51.6,88.2c-1,0.9-4,2.2-5.2,2.5c0-3.5,0-5.3,0-8.8c1.1-0.6,4.1-1.3,5.2-0.5c0,0.3,0,0.4,0,0.7
			c0.8-2.4,2-3.4,3.1-3.9c1.1-0.5,2.3-0.4,2.3,0.8c0,1-0.9,2.2-1.9,2.7c-1,0.5-1.9,0.1-1.9-0.9c0-0.4,0.2-0.9,0.4-1.4
			c-1,0.8-2,3.3-2,4.4C51.6,85.6,51.6,86.5,51.6,88.2z"/>
		<path fill="#FBFAF2" d="M61.8,79.7c0,1.7,1.2,2.7,3.5,1.5c1.8-0.9,4-2.8,5.4-4.3c0,0.1,0,0.2,0,0.4c-1.6,2-4.8,4.7-7.9,6.3
			c-3.1,1.5-5.8,1.7-5.8-1.4c0-3.3,4-6.8,7.1-8.3c4.3-2.2,5-0.6,5,0c0,1-0.9,2.3-1.9,2.8c-1.1,0.5-1.9,0.2-1.9-0.8
			c0-1,0.7-2.1,1.7-2.7C63.5,74.9,61.8,77.8,61.8,79.7z"/>
		<path fill="#FBFAF2" d="M75.2,74.1c0.4,1,1.4,1.4,3.4,0.3c1.6-0.8,3.5-2.3,5.4-4.3c0,0.1,0,0.2,0,0.4c-1.7,2-4.1,4.4-8.1,6.4
			c-3,1.5-5.7,2-5.7-1.3c0-3.3,4-7,7.1-8.6c1.7-0.9,5.1-2.1,5.1,0.2C82.4,69.7,78.3,72.8,75.2,74.1z M75.2,73.8
			c2.4-1.3,3.3-3.6,3.3-5.1c0-1-0.4-1.7-1.1-1.3C76.2,68.1,74.6,71.9,75.2,73.8z"/>
		<path fill="#FBFAF2" d="M84,60.5c-3.3,1.3-6,1.6-6.4-0.1c-0.2-1.1,0.9-2.8,2.3-3.6c0.9-0.4,2.3-0.7,2.3,0.3c0,0.6-0.5,1.4-1.2,1.8
			c-0.7,0.3-1.2,0.1-1.2-0.5c0-0.5,0.3-1.1,0.8-1.5c-0.2,0-0.4,0.1-0.6,0.2c-1.2,0.6-2.2,2.1-2,2.9c0.3,1.5,2.9,1.2,6,0c0,0,0,0,0,0
			c0-2.5,3.2-5.7,5.6-6.9c1.6-0.8,2.7-0.6,2.7,0.8c0,1.2-1.3,2.8-3.2,3.9c0,3.8,0,5.7,0,9.4c0,1,0.4,1,0.9,0.8
			c0.9-0.5,1.7-1.3,2.5-2.2c0,0.1,0,0.2,0,0.4c-1.6,2.3-3.5,4-5.4,4.9c-2,1-3.1,0-3.1-1.3C84,66.1,84,64.3,84,60.5z M89.1,57.5
			c1.6-1.2,2-2.4,2-2.9c0-0.5-0.4-0.7-1-0.4c-0.5,0.2-1,0.8-1.1,1.4C89.1,56.3,89.1,56.7,89.1,57.5z"/>
		<path fill="#FBFAF2" d="M105.1,58.4c0,2.5-2,5.3-6.6,7.4c-4.6,2.1-6.6,1.1-6.6-1.5c0-2.5,2-5.6,6.6-7.7
			C103.1,54.5,105.1,55.8,105.1,58.4z M99.9,60.6c0-1.5,0-4.1-1.4-3.5c-1.4,0.6-1.4,3.3-1.4,4.8c0,1.5,0,4.2,1.4,3.5
			C99.9,64.7,99.9,62,99.9,60.6z"/>
		<path fill="#FBFAF2" d="M111.5,59.9c-1,0.8-4,2-5.2,2.3c0-3.5,0-5.3,0-8.8c1.1-0.6,4.1-1.2,5.2-0.3c0,0.1,0,0.2,0,0.3
			c1.6-1.6,3.1-3.1,4.8-3.6c2.8-0.8,3.1,1.4,3.1,2.1c0.1,1.3,0.2,2,0.4,3.3c0.1,0.7,0.4,0.9,0.9,0.8c0.9-0.2,1.8-0.9,2.4-1.6
			c0,0.1,0,0.2,0,0.4c-1.6,1.8-3.5,3.1-5.4,3.7c-2.7,0.8-3-1.2-3.1-2c-0.1-1.4-0.2-2.2-0.3-3.6c0-0.4-0.4-0.4-0.8-0.3
			c-0.7,0.2-1.4,0.9-1.9,1.3C111.5,56.3,111.5,57.5,111.5,59.9z"/>
		<path fill="#FBFAF2" d="M138.7,52.9c-1.6,1.5-3.5,2.3-5.4,2.5c-2,0.2-2.7-0.9-3-1.8c-0.9,1.3-2,2.4-3.8,2.7
			c-2.4,0.4-3.9-0.7-3.9-3.4c0-2.9,2.5-5.7,8.3-6.4c1.2-0.1,3.1-0.2,4.3,0.1c0,2.3,0,3.5,0,5.8c0,1,0.4,1.2,0.9,1.2
			c0.9,0,1.7-0.5,2.5-1C138.7,52.7,138.7,52.8,138.7,52.9z M130.1,47.1c-1.8,0.3-3,1.6-3,4.3c0,1.6,0.7,2.8,1.8,2.6
			c0.4-0.1,0.7-0.3,1.2-0.7C130.1,50.8,130.1,49.6,130.1,47.1z"/>
		<path fill="#FBFAF2" d="M47.1,108.9c2-0.9,3.4-2.5,3.4-3.7c0-2.5-5.5-0.6-9.4,1.6c0-0.1,0-0.2,0-0.4c3.4-2,6.8-3.9,8.7-4.6
			c3.8-1.6,5.4-0.9,5.4,0.6c0,1.2-1,2.9-2.8,4.3c2.5-0.7,4-0.5,4,1.1c0,3.2-4.8,5.9-7.5,7c-2,0.8-5.4,2-6.8,2.2c0-4.1,0-6.2,0-10.3
			c1.2-0.6,4.2-1.6,5.2-1.6C47.1,106.6,47.1,107.4,47.1,108.9z M47.1,115c5.3-2.4,5.1-8.2,0-5.8C47.1,111.6,47.1,112.7,47.1,115z"/>
		<path fill="#FBFAF2" d="M70.4,100c0,2.5-2,5.6-6.6,7.9c-4.6,2.3-6.6,1.1-6.6-1.4c0-2.5,2-5.5,6.6-7.7
			C68.4,96.5,70.4,97.5,70.4,100z M65.2,102.6c0-1.5,0-4.1-1.4-3.4c-1.4,0.7-1.4,3.4-1.4,4.8c0,1.5,0,4.2,1.4,3.5
			C65.2,106.8,65.2,104.1,65.2,102.6z"/>
		<path fill="#FBFAF2" d="M76.8,92.7c0,2.3,0,3.4,0,5.6c0,1,0.4,1,0.9,0.7c0.9-0.5,1.7-1.3,2.5-2.3c0,0.1,0,0.2,0,0.4
			c-1.6,2.3-3.5,4.1-5.4,5.1c-2,1-3.1,0.1-3.1-1.3c0-2.2,0-3.4,0-5.6c-0.3,0.1-0.4,0.2-0.7,0.3c0-0.2,0-0.2,0-0.4
			c0.4-0.2,0.7-0.3,1.1-0.6c0-0.3,0-0.4,0-0.7c1.1-1.8,3.6-3.7,4.7-4.1c0,1,0,1.4,0,2.4c1-0.5,1.4-0.7,2.4-1.2c0,0.2,0,0.2,0,0.4
			C78.3,92,77.8,92.2,76.8,92.7z"/>
		<path fill="#FBFAF2" d="M92.8,88.7c0,2.5-2,5.5-6.6,7.8c-4.6,2.3-6.6,1.3-6.6-1.2c0-2.5,2-5.6,6.6-7.9
			C90.8,85,92.8,86.1,92.8,88.7z M87.6,91.2c0-1.5,0-4.1-1.4-3.4c-1.4,0.7-1.4,3.4-1.4,4.9c0,1.5,0,4.2,1.4,3.5
			C87.6,95.4,87.6,92.7,87.6,91.2z"/>
		<path fill="#FBFAF2" d="M99.1,89.7c-1,0.9-4,2.4-5.2,2.8c0-3.5,0-5.3,0-8.8c1.1-0.7,4.1-1.5,5.2-0.7c0,0.1,0,0.2,0,0.3
			c1.6-1.8,3.1-3.4,4.8-4.1c2.8-1.1,3.1,1,3.1,1.7c0.1,1.3,0.2,2,0.4,3.3c0.1,0.7,0.4,0.9,0.9,0.7c0.9-0.3,1.8-1.2,2.4-1.9
			c0,0.1,0,0.2,0,0.4c-1.6,2-3.5,3.6-5.4,4.3c-2.7,1.1-3-0.9-3.1-1.7c-0.1-1.4-0.2-2.1-0.3-3.6c0-0.4-0.4-0.4-0.8-0.2
			c-0.7,0.3-1.4,1-1.9,1.5C99.1,86.1,99.1,87.3,99.1,89.7z"/>
		<path fill="#FBFAF2" d="M115.2,80.9c0.4,1.1,1.4,1.6,3.4,1c1.6-0.4,3.5-1.4,5.4-2.9c0,0.1,0,0.2,0,0.4c-1.7,1.5-4.1,3.2-8.1,4.4
			c-3,0.9-5.7,1-5.7-2.3c0-3.3,4-6.4,7.1-7.2c1.7-0.5,5.1-0.8,5.1,1.5C122.4,78.1,118.3,80.1,115.2,80.9z M115.2,80.6
			c2.4-0.8,3.3-2.8,3.3-4.3c0-1-0.4-1.8-1.1-1.6C116.2,75,114.6,78.5,115.2,80.6z"/>
	</g>
</g>
</svg>
