<?xml version="1.0" encoding="utf-8"?>
<!-- Generator: Adobe Illustrator 18.0.0, SVG Export Plug-In . SVG Version: 6.00 Build 0)  -->
<!DOCTYPE svg PUBLIC "-//W3C//DTD SVG 1.1//EN" "http://www.w3.org/Graphics/SVG/1.1/DTD/svg11.dtd">
<svg version="1.1" id="Layer_1" xmlns="http://www.w3.org/2000/svg" xmlns:xlink="http://www.w3.org/1999/xlink" x="0px" y="0px"
	 viewBox="0 0 100 120" enable-background="new 0 0 100 120" xml:space="preserve">
<path fill="#BDDFE0" d="M29.7,1c0,0,18.9,7.2,39.2,0l15.2,6.1H14.5L29.7,1z"/>
<rect x="14.7" y="6.8" fill="#BDDFE0" width="69.7" height="81.1"/>
<polyline fill="none" stroke="#EFEFD0" stroke-width="5" stroke-miterlimit="10" points="72.7,2 35.2,15.1 52.1,88.4 "/>
<path fill="#EFEFD0" d="M28.6,1.5l-4.8,1.9c0,0,8.7,6.3,25.7,6.7l10.5-5.6C60.1,4.5,44.6,8.3,28.6,1.5z"/>
<path fill="#FBFAF2" d="M52.3,40.3c0,0-9-2-12.7,0c-3.7,2-3.7,2-3.7,2L34,47.3l3.3,3.8h4.8c0,0,9.4,0,13.8-2.1s9-4.7,8.7-6.8
	C64.4,40.1,56.5,37.9,52.3,40.3z"/>
<path fill="#BDDFE0" d="M14.7,6.7c0,0-8-0.9-9.8,7.3S2.2,65.2,2.2,65.2s0.9,8.5,8.5,8.5s34.6-17.9,34.6-17.9l-11-15.6l-15.1,7.1
	l1.3-22.6L14.7,6.7z"/>
<path fill="#FBFAF2" d="M79.7,94.3c0,0-0.4,7.6,0,10.2c0.4,2.6,3.7-0.4,4.8-5.1c0,0-0.6,8.9-2.5,10.7c-1.8,1.7-1.8,3.4,0,4.3
	s5.8-0.9,7.6-3.8c1.8-3,4.6-9.7,4.6-16.2s0-6.4,0-6.4H78.8L79.7,94.3z"/>
<path fill="#BDDFE0" d="M84.1,6.7c2.4-1.3,6.5,2.1,7.8,6.4s7.5,41.8,1.9,71.7V93H78.5v-9.4c0,0,0-33.3-3.6-61.9L84.1,6.7z"/>
<polygon fill="#EFEFD0" points="30.2,42.3 41.6,58.4 37.4,61 25.8,44.4 "/>
<polygon fill="#EFEFD0" points="78.8,90.4 94.2,90.4 94.2,86.4 78.9,86.4 "/>
<path fill="none" stroke="#10919D" stroke-miterlimit="10" d="M20.7,24.7l-1.3,22.6l15.1-7.1l11,15.6c0,0-29.8,18.9-30.9,17.2"/>
<path fill="none" stroke="#10919D" stroke-miterlimit="10" d="M75.1,21.7c0,0,5.7,41.8,3.6,66.2"/>
<ellipse fill="#F9D854" cx="45.8" cy="19.6" rx="2.1" ry="2"/>
<ellipse fill="#F9D854" cx="56.5" cy="79.8" rx="2.1" ry="2"/>
<ellipse fill="#F9D854" cx="54.4" cy="67.6" rx="2.1" ry="2"/>
<ellipse fill="#F9D854" cx="48.6" cy="32.2" rx="2.1" ry="2"/>
<ellipse fill="#F9D854" cx="53" cy="54.8" rx="2.1" ry="2"/>
<ellipse fill="#F9D854" cx="92.1" cy="87.9" rx="2.1" ry="2"/>
<ellipse fill="#F9D854" cx="37.3" cy="57.3" rx="2.1" ry="2"/>
<path fill="#F9D854" stroke="#10919D" stroke-miterlimit="10" d="M57.5,39.4l-14.3-0.2c0,0-1.9,1.2-1.7,1.4c0.2,0.2,1.2,0.6,1.2,0.6
	l0.5-0.9v0.9h1.5c0,0-0.2-0.7,0.4-0.4c0.6,0.3,0.6,0.3,0.6,0.3l1.5,0.1v-0.9l0.8,0.9h9.4V39.4z"/>
<path fill="#10919D" d="M53.9,41.8v-3.2c0-1.1,0.9-2,2-2h1.7c1.1,0,2,0.9,2,2v3.2c0,1.1-0.9,2-2,2h-1.7
	C54.8,43.8,53.9,42.9,53.9,41.8z"/>
<path fill="#10919D" d="M46.4,39.1v0.2c0,0,0,0,0,0l0,0c0,0,0,0,0,0L46.4,39.1C46.5,39.1,46.5,39.1,46.4,39.1L46.4,39.1
	C46.4,39.1,46.4,39.1,46.4,39.1z"/>
<ellipse fill="#10919D" cx="59.6" cy="40.2" rx="0.7" ry="1.4"/>
<path fill="#F9D854" d="M54.4,41.4v-2.3c0-1.1,0.9-2,2-2h0.7c1.1,0,2,0.9,2,2v2.3c0,1.1-0.9,2-2,2h-0.7
	C55.3,43.4,54.4,42.5,54.4,41.4z"/>
</svg>
