<?xml version="1.0" encoding="utf-8"?>
<!-- Generator: Adobe Illustrator 18.0.0, SVG Export Plug-In . SVG Version: 6.00 Build 0)  -->
<!DOCTYPE svg PUBLIC "-//W3C//DTD SVG 1.1//EN" "http://www.w3.org/Graphics/SVG/1.1/DTD/svg11.dtd">
<svg version="1.1" xmlns="http://www.w3.org/2000/svg" xmlns:xlink="http://www.w3.org/1999/xlink" x="0px" y="0px"
	 viewBox="0 0 175 330" enable-background="new 0 0 175 330" xml:space="preserve">
<g id="Layer_3">
	<path fill="#BDDFE0" d="M61.3,147.8c0,0,27,10.8,56.3,0l21.9,9.2h-100L61.3,147.8z"/>
</g>
<g id="Layer_1">
	<circle fill="#51C1CC" cx="89.4" cy="79.6" r="75"/>
	<circle fill="none" stroke="#10919D" stroke-width="7" stroke-miterlimit="10" cx="89.4" cy="79.6" r="64"/>
	<circle fill="#10919D" cx="67.2" cy="58" r="12.5"/>
	<circle fill="#10919D" cx="111" cy="101.2" r="12.5"/>
	<circle fill="#10919D" cx="67.8" cy="101.2" r="12.5"/>
	<circle fill="#10919D" cx="110.4" cy="58" r="12.5"/>
	<rect x="39.7" y="156.5" fill="#BDDFE0" width="100" height="122.6"/>
</g>
<g id="Layer_5">
	<polyline fill="none" stroke="#EFEFD0" stroke-width="5" stroke-miterlimit="10" points="122.9,149.3 69.1,169.1 93.4,279.9 	"/>
	<path fill="#EFEFD0" d="M59.6,148.5l-6.8,2.9c0,0,12.4,9.5,36.9,10.2l15.1-8.4C104.8,153,82.6,158.8,59.6,148.5z"/>
</g>
<g id="Layer_2">
	<path fill="#FBFAF2" d="M93.7,207.1c0,0-12.9-3-18.2,0c-5.3,3-5.3,3-5.3,3l-2.7,7.6l4.8,5.8h6.9c0,0,13.4,0,19.7-3.2
		c6.3-3.2,12.9-7.1,12.5-10.3C111,206.8,99.6,203.5,93.7,207.1z"/>
	<path fill="#BDDFE0" d="M39.7,156.4c0,0-11.5-1.3-14,11c-2.5,12.3-3.8,77.4-3.8,77.4s1.3,12.9,12.3,12.9s49.7-27.1,49.7-27.1
		L68,207l-21.7,10.7l1.9-34.2L39.7,156.4z"/>
	<path fill="#FBFAF2" d="M132.9,288.8c0,0-0.6,11.5,0,15.4s5.3-0.6,6.8-7.7c0,0-0.9,13.5-3.6,16.1c-2.6,2.6-2.5,5.2,0,6.5
		c2.5,1.3,8.3-1.3,10.9-5.8c2.6-4.5,6.6-14.7,6.6-24.5c0-9.7,0-9.7,0-9.7h-22.1L132.9,288.8z"/>
	<path fill="#BDDFE0" d="M139.3,156.4c3.5-1.9,9.3,3.2,11.2,9.7s10.7,63.2,2.8,108.4v12.3h-22.1v-14.2c0,0,0-50.3-5.2-93.5
		L139.3,156.4z"/>
</g>
<g id="Layer_6">
	<polygon fill="#EFEFD0" points="62,210.2 78.2,234.5 72.2,238.4 55.7,213.3 	"/>
	<polygon fill="#EFEFD0" points="131.6,282.9 153.7,282.9 153.7,276.9 131.8,276.9 	"/>
</g>
<g id="Layer_4">
	<path fill="none" stroke="#10919D" stroke-miterlimit="10" d="M48.3,183.5l-1.9,34.2L68,207l15.7,23.6c0,0-42.7,28.5-44.4,25.9"/>
	<path fill="none" stroke="#10919D" stroke-miterlimit="10" d="M126.4,179c0,0,8.1,63.2,5.2,100.1"/>
	<circle fill="#F9D854" cx="84.3" cy="175.9" r="3"/>
	<circle fill="#F9D854" cx="99.7" cy="266.9" r="3"/>
	<circle fill="#F9D854" cx="96.7" cy="248.4" r="3"/>
	<circle fill="#F9D854" cx="88.3" cy="194.9" r="3"/>
	<circle fill="#F9D854" cx="94.7" cy="229" r="3"/>
	<circle fill="#F9D854" cx="150.7" cy="279.1" r="3"/>
	<circle fill="#F9D854" cx="72.1" cy="232.8" r="3"/>
</g>
<g id="Layer_7">
	<g>
		<g>
			<path fill="#FBFAF2" d="M31.9,93.7c2-0.3,3.4-1.5,3.4-2.7c0-2.5-5.5-2.1-9.4-1.4c0-0.1,0-0.2,0-0.4c3.4-0.8,6.8-1.6,8.7-1.9
				c3.8-0.5,5.4,0.5,5.4,2.1c0,1.2-1,2.6-2.8,3.6c2.5,0,4,0.6,4,2.1c0,3.2-4.8,4.7-7.5,5c-2,0.2-5.4,0.3-6.8,0.1c0-4.1,0-6.2,0-10.3
				c1.2-0.2,4.2-0.2,5.2,0.1C31.9,91.4,31.9,92.1,31.9,93.7z M31.9,99.8c5.3-0.8,5.1-6.6,0-5.8C31.9,96.4,31.9,97.5,31.9,99.8z"/>
			<path fill="#FBFAF2" d="M58,91.1c-1.6,2.1-3.5,3.6-5.4,4.3c-2,0.7-2.7-0.3-3-1.2c-0.9,1.5-2,2.8-3.8,3.3C43.4,98.2,42,97,42,94.3
				c0-2.9,2.5-5.4,8.3-7.3c1.2-0.4,3.1-0.9,4.3-1c0,2.3,0,3.5,0,5.8c0,1,0.4,1.1,0.9,0.9c0.9-0.4,1.7-1.1,2.5-1.9
				C58,90.9,58,90.9,58,91.1z M49.5,87.8c-1.8,0.6-3,2.1-3,4.8c0,1.6,0.7,2.7,1.8,2.4c0.4-0.1,0.7-0.4,1.2-0.9
				C49.5,91.5,49.5,90.2,49.5,87.8z"/>
			<path fill="#FBFAF2" d="M63.1,90.7c-1,0.9-4,2.2-5.2,2.5c0-3.5,0-5.3,0-8.8c1.1-0.6,4.1-1.3,5.2-0.5c0,0.3,0,0.4,0,0.7
				c0.8-2.4,2-3.4,3.1-3.9c1.1-0.5,2.3-0.4,2.3,0.8c0,1-0.9,2.2-1.9,2.7c-1,0.5-1.9,0.1-1.9-0.9c0-0.4,0.2-0.9,0.4-1.4
				c-1,0.8-2,3.3-2,4.4C63.1,88.1,63.1,89,63.1,90.7z"/>
			<path fill="#FBFAF2" d="M73.3,82.2c0,1.7,1.2,2.7,3.5,1.5c1.8-0.9,4-2.8,5.4-4.3c0,0.1,0,0.2,0,0.4c-1.6,2-4.8,4.7-7.9,6.3
				c-3.1,1.5-5.8,1.7-5.8-1.4c0-3.3,4-6.8,7.1-8.3c4.3-2.2,5-0.6,5,0c0,1-0.9,2.3-1.9,2.8c-1.1,0.5-1.9,0.2-1.9-0.8
				c0-1,0.7-2.1,1.7-2.7C75,77.4,73.3,80.3,73.3,82.2z"/>
			<path fill="#FBFAF2" d="M86.7,76.6c0.4,1,1.4,1.4,3.4,0.3c1.6-0.8,3.5-2.3,5.4-4.3c0,0.1,0,0.2,0,0.4c-1.7,2-4.1,4.4-8.1,6.4
				c-3,1.5-5.7,2-5.7-1.3c0-3.3,4-7,7.1-8.6c1.7-0.9,5.1-2.1,5.1,0.2C93.9,72.2,89.8,75.3,86.7,76.6z M86.7,76.3
				c2.4-1.3,3.3-3.6,3.3-5.1c0-1-0.4-1.7-1.1-1.3C87.7,70.6,86.1,74.4,86.7,76.3z"/>
			<path fill="#FBFAF2" d="M95.5,63c-3.3,1.3-6,1.6-6.4-0.1c-0.2-1.1,0.9-2.8,2.3-3.6c0.9-0.4,2.3-0.7,2.3,0.3
				c0,0.6-0.5,1.4-1.2,1.8c-0.7,0.3-1.2,0.1-1.2-0.5c0-0.5,0.3-1.1,0.8-1.5c-0.2,0-0.4,0.1-0.6,0.2c-1.2,0.6-2.2,2.1-2,2.9
				c0.3,1.5,2.9,1.2,6,0c0,0,0,0,0,0c0-2.5,3.2-5.7,5.6-6.9c1.6-0.8,2.7-0.6,2.7,0.8c0,1.2-1.3,2.8-3.2,3.9c0,3.8,0,5.7,0,9.4
				c0,1,0.4,1,0.9,0.8c0.9-0.5,1.7-1.3,2.5-2.2c0,0.1,0,0.2,0,0.4c-1.6,2.3-3.5,4-5.4,4.9c-2,1-3.1,0-3.1-1.3
				C95.5,68.6,95.5,66.8,95.5,63z M100.6,60c1.6-1.2,2-2.4,2-2.9c0-0.5-0.4-0.7-1-0.4c-0.5,0.2-1,0.8-1.1,1.4
				C100.6,58.8,100.6,59.2,100.6,60z"/>
			<path fill="#FBFAF2" d="M116.6,60.9c0,2.5-2,5.3-6.6,7.4c-4.6,2.1-6.6,1.1-6.6-1.5c0-2.5,2-5.6,6.6-7.7
				C114.6,57,116.6,58.3,116.6,60.9z M111.4,63.1c0-1.5,0-4.1-1.4-3.5c-1.4,0.6-1.4,3.3-1.4,4.8c0,1.5,0,4.2,1.4,3.5
				C111.4,67.2,111.4,64.5,111.4,63.1z"/>
			<path fill="#FBFAF2" d="M123,62.4c-1,0.8-4,2-5.2,2.3c0-3.5,0-5.3,0-8.8c1.1-0.6,4.1-1.2,5.2-0.3c0,0.1,0,0.2,0,0.3
				c1.6-1.6,3.1-3.1,4.8-3.6c2.8-0.8,3.1,1.4,3.1,2.1c0.1,1.3,0.2,2,0.4,3.3c0.1,0.7,0.4,0.9,0.9,0.8c0.9-0.2,1.8-0.9,2.4-1.6
				c0,0.1,0,0.2,0,0.4c-1.6,1.8-3.5,3.1-5.4,3.7c-2.7,0.8-3-1.2-3.1-2c-0.1-1.4-0.2-2.2-0.3-3.6c0-0.4-0.4-0.4-0.8-0.3
				c-0.7,0.2-1.4,0.9-1.9,1.3C123,58.8,123,60,123,62.4z"/>
			<path fill="#FBFAF2" d="M150.2,55.4c-1.6,1.5-3.5,2.3-5.4,2.5c-2,0.2-2.7-0.9-3-1.8c-0.9,1.3-2,2.4-3.8,2.7
				c-2.4,0.4-3.9-0.7-3.9-3.4c0-2.9,2.5-5.7,8.3-6.4c1.2-0.1,3.1-0.2,4.3,0.1c0,2.3,0,3.5,0,5.8c0,1,0.4,1.2,0.9,1.2
				c0.9,0,1.7-0.5,2.5-1C150.2,55.2,150.2,55.3,150.2,55.4z M141.6,49.6c-1.8,0.3-3,1.6-3,4.3c0,1.6,0.7,2.8,1.8,2.6
				c0.4-0.1,0.7-0.3,1.2-0.7C141.6,53.3,141.6,52.1,141.6,49.6z"/>
			<path fill="#FBFAF2" d="M58.6,111.4c2-0.9,3.4-2.5,3.4-3.7c0-2.5-5.5-0.6-9.4,1.6c0-0.1,0-0.2,0-0.4c3.4-2,6.8-3.9,8.7-4.6
				c3.8-1.6,5.4-0.9,5.4,0.6c0,1.2-1,2.9-2.8,4.3c2.5-0.7,4-0.5,4,1.1c0,3.2-4.8,5.9-7.5,7c-2,0.8-5.4,2-6.8,2.2c0-4.1,0-6.2,0-10.3
				c1.2-0.6,4.2-1.6,5.2-1.6C58.6,109.1,58.6,109.9,58.6,111.4z M58.6,117.5c5.3-2.4,5.1-8.2,0-5.8
				C58.6,114.1,58.6,115.2,58.6,117.5z"/>
			<path fill="#FBFAF2" d="M81.9,102.5c0,2.5-2,5.6-6.6,7.9c-4.6,2.3-6.6,1.1-6.6-1.4c0-2.5,2-5.5,6.6-7.7
				C79.9,99,81.9,100,81.9,102.5z M76.7,105.1c0-1.5,0-4.1-1.4-3.4c-1.4,0.7-1.4,3.4-1.4,4.8s0,4.2,1.4,3.5
				C76.7,109.3,76.7,106.6,76.7,105.1z"/>
			<path fill="#FBFAF2" d="M88.3,95.2c0,2.3,0,3.4,0,5.6c0,1,0.4,1,0.9,0.7c0.9-0.5,1.7-1.3,2.5-2.3c0,0.1,0,0.2,0,0.4
				c-1.6,2.3-3.5,4.1-5.4,5.1c-2,1-3.1,0.1-3.1-1.3c0-2.2,0-3.4,0-5.6c-0.3,0.1-0.4,0.2-0.7,0.3c0-0.2,0-0.2,0-0.4
				c0.4-0.2,0.7-0.3,1.1-0.6c0-0.3,0-0.4,0-0.7c1.1-1.8,3.6-3.7,4.7-4.1c0,1,0,1.4,0,2.4c1-0.5,1.4-0.7,2.4-1.2c0,0.2,0,0.2,0,0.4
				C89.8,94.5,89.3,94.7,88.3,95.2z"/>
			<path fill="#FBFAF2" d="M104.3,91.2c0,2.5-2,5.5-6.6,7.8c-4.6,2.3-6.6,1.3-6.6-1.2c0-2.5,2-5.6,6.6-7.9
				C102.3,87.5,104.3,88.6,104.3,91.2z M99.1,93.7c0-1.5,0-4.1-1.4-3.4c-1.4,0.7-1.4,3.4-1.4,4.9c0,1.5,0,4.2,1.4,3.5
				C99.1,97.9,99.1,95.2,99.1,93.7z"/>
			<path fill="#FBFAF2" d="M110.6,92.2c-1,0.9-4,2.4-5.2,2.8c0-3.5,0-5.3,0-8.8c1.1-0.7,4.1-1.5,5.2-0.7c0,0.1,0,0.2,0,0.3
				c1.6-1.8,3.1-3.4,4.8-4.1c2.8-1.1,3.1,1,3.1,1.7c0.1,1.3,0.2,2,0.4,3.3c0.1,0.7,0.4,0.9,0.9,0.7c0.9-0.3,1.8-1.2,2.4-1.9
				c0,0.1,0,0.2,0,0.4c-1.6,2-3.5,3.6-5.4,4.3c-2.7,1.1-3-0.9-3.1-1.7c-0.1-1.4-0.2-2.1-0.3-3.6c0-0.4-0.4-0.4-0.8-0.2
				c-0.7,0.3-1.4,1-1.9,1.5C110.6,88.6,110.6,89.8,110.6,92.2z"/>
			<path fill="#FBFAF2" d="M126.7,83.4c0.4,1.1,1.4,1.6,3.4,1c1.6-0.4,3.5-1.4,5.4-2.9c0,0.1,0,0.2,0,0.4c-1.7,1.5-4.1,3.2-8.1,4.4
				c-3,0.9-5.7,1-5.7-2.3c0-3.3,4-6.4,7.1-7.2c1.7-0.5,5.1-0.8,5.1,1.5C133.9,80.6,129.8,82.6,126.7,83.4z M126.7,83.1
				c2.4-0.8,3.3-2.8,3.3-4.3c0-1-0.4-1.8-1.1-1.6C127.7,77.5,126.1,81,126.7,83.1z"/>
		</g>
	</g>
</g>
<g id="Layer_8">
	<path fill="#F9D854" stroke="#10919D" stroke-miterlimit="10" d="M101.2,205.8l-20.5-0.2c0,0-2.7,1.8-2.4,2.1s1.7,0.9,1.7,0.9
		l0.7-1.3v1.3h2.2c0,0-0.3-1.1,0.6-0.6s0.9,0.5,0.9,0.5l2.1,0.1v-1.3l1.2,1.3h13.5V205.8z"/>
	<path fill="#10919D" d="M96,210.5v-6.9c0-1.1,0.9-2,2-2h4.2c1.1,0,2,0.9,2,2v6.9c0,1.1-0.9,2-2,2H98C96.9,212.5,96,211.6,96,210.5z
		"/>
	<path fill="#10919D" d="M85.2,205.4v0.4c0,0,0,0.1,0.1,0.1l0,0c0,0,0.1,0,0.1-0.1v-0.4C85.3,205.4,85.3,205.3,85.2,205.4
		L85.2,205.4C85.2,205.3,85.2,205.4,85.2,205.4z"/>
	<ellipse fill="#10919D" cx="104.2" cy="207" rx="0.9" ry="2.1"/>
	<path fill="#F9D854" d="M96.7,209.8v-5.5c0-1.1,0.9-2,2-2h2.7c1.1,0,2,0.9,2,2v5.5c0,1.1-0.9,2-2,2h-2.7
		C97.6,211.8,96.7,210.9,96.7,209.8z"/>
</g>
</svg>
