<?xml version="1.0" encoding="utf-8"?>
<!-- Generator: Adobe Illustrator 17.1.0, SVG Export Plug-In . SVG Version: 6.00 Build 0)  -->
<!DOCTYPE svg PUBLIC "-//W3C//DTD SVG 1.1//EN" "http://www.w3.org/Graphics/SVG/1.1/DTD/svg11.dtd">
<svg version="1.1" xmlns="http://www.w3.org/2000/svg" xmlns:xlink="http://www.w3.org/1999/xlink" x="0px" y="0px"
	 viewBox="0 0 200 200" enable-background="new 0 0 200 200" xml:space="preserve">
<g id="Layer_1">
	<rect fill="#6FCEE9" width="200" height="200"/>
</g>
<g id="Layer_2">
	<path fill="#F6D4CF" stroke="#000000" stroke-miterlimit="10" d="M101.2,41.3c0,0,4.4,0.2,6.9-2.9c0,0-0.6,1.6,2,2.9
		c2.7,1.3,10.6,0.5,12.4-1.4s-12.2-14.2-12.2-14.2L97.4,36.8l3.8,5.9"/>
	<path fill="#F6D4CF" stroke="#000000" stroke-miterlimit="10" d="M100,42.5l7,1.5c0,0,4.3-4.7,9.1-5.6c0,0,3.9,6.4-12.3,16.8
		c0,0-7.6-1-7.2-2.8c0,0-2-5.4,0.6-7.7C100,42.5,100,42.5,100,42.5z"/>
	<path fill="#F6D4CF" stroke="#000000" stroke-miterlimit="10" d="M195.2,0L148,17c0,0-33.5-2.2-42.8-4c0,0-2,0-4.1,1
		c-1.3,0.6-2.6,1.5-3.5,3c0,0-1.8,3.1-4,7.1c-3.5,6.1-8.1,14.2-8.9,16c-1.4,2.9,1.4,19.4,1.8,21.9c0.4,2.5,3.6,10.1,4.3,10.8
		c0.7,0.7,1.4,1.8,5.4-1.8c0,0,0.1-1.6,0.2-3.3c0.1-1.6,0.2-3.2,0.2-3.5c0-0.7,0.2-1.3,0.2-2.2c0-1-0.3-2.4-1.7-4.7
		c0,0,3.2-8.6,2.2-12.6c0,0,6.5-4.3,7.6-10.4c0,0,5.4-0.7,7.9-2.2c0,0,5,7.6,4,10.1c-1.1,2.5-4,6.5-7.6,9s-7.6,5.4-9.2,8.6
		c-1.6,3.2-7,13.7,0,13.7c0,0,0.9,1.4,7.4-4.3c0,0,12.2-8.3,13.3-9.7c1.1-1.4,11.2-9,15.5-10.4c4.3-1.4,14.7-4,15.5-9.7
		c0,0,2.9-3.6,14.7-4.3c11.9-0.7,11.9-0.7,11.9-0.7l21.7-2.2V0H195.2z"/>
	<path fill="#F6D4CF" stroke="#000000" stroke-miterlimit="10" d="M101.2,14c0,0-7.9-2-7.5,10C93.7,24.1,99.5,14.6,101.2,14z"/>
	<path fill="#F6D4CF" stroke="#000000" stroke-miterlimit="10" d="M0,144c0,0,50.2-0.7,59.2-13.3c0,0,6.1-3.6,18.3,0
		c0,0,7.9,1.4,25.2-3.2c0,0,11.2-0.4,11.5,6.1c0.4,6.5-23,6.8-23,6.8s-0.7,4.7,20.1,3.6c0,0,6.8-2.9,6.8-4s-4.7-10.4-4-12.6
		c0.7-2.2,0.7-5,4-4.7s4.3,7.9,7.9,15.1c0,0,1.4,17.3,0,19.4c-1.4,2.2-27.6,12.2-30.2,12.2c-2.6,0-36.4-6.5-41.8-5.8
		c-5.4,0.7-32,2.2-54.2,11.2V144z"/>
	<path fill="#F6D4CF" stroke="#000000" stroke-miterlimit="10" d="M126.1,137.9l4-4c0,0-1.4-16.2,8.3-14.7c0,0,0.7,4.3,0,18.7
		c0,0-7.2,15.1-7.9,16.2c-0.7,1.1-3.7,0-3.7,0L126.1,137.9z"/>
	<path fill="#F6D4CF" stroke="#000000" stroke-miterlimit="10" d="M138.5,133.6c0,0,13.1-5.7,12.4,0l-17,13.4l4.4-9.1L138.5,133.6z"
		/>
	<path fill="#F6D4CF" stroke="#000000" stroke-miterlimit="10" d="M95.9,169.5c0,0,19.8-7.6,20.7-9.7c0.9-2.2,3.4-9.4,1.6-19.8
		c0,0-6.9-4.4-8.1-9c-1.2-4.6,0-2.4,0-2.4s-8.1-3.2-2.7,10.4c0,0,3.6,8.1,4.7,8c1.1-0.1-2.6-2.3-4.7,6.3l-6.2,1.2"/>
	<path fill="#DC3B54" stroke="#000000" stroke-miterlimit="10" d="M102.7,100c0,0-0.1,3-2.7,1.5v4.7l-1.4,0.5l0.8,0.9l-0.8,1.9
		l0.8,1.7l-0.8,1.5l0.6,0.8l-0.6,1.8v1.4v1.9l-2.7,3.2l-2.8-2.7v-17.6c0,0-1.9,0.4-3-1.5H102.7z"/>
	<path fill="#DC3B54" stroke="#000000" stroke-miterlimit="10" d="M103.3,84.3H90.6c-0.8,0-1.5,0.7-1.5,1.5v12.6
		c0,0.9,0.7,1.6,1.6,1.6h12c1.2,0,2.2-1,2.2-2.2v-12C104.9,85,104.2,84.3,103.3,84.3z M96.3,90.4c-1.3,0-2.3-0.9-2.3-1.9
		c0-1.1,1-1.9,2.3-1.9s2.3,0.9,2.3,1.9C98.6,89.5,97.6,90.4,96.3,90.4z"/>
	<path fill="none" stroke="#000000" stroke-miterlimit="10" d="M96.4,67.7"/>
	<ellipse fill="none" stroke="#000000" stroke-miterlimit="10" cx="96.6" cy="78.1" rx="0.7" ry="8.4"/>
	<ellipse fill="none" stroke="#000000" stroke-miterlimit="10" cx="96.2" cy="79.2" rx="1.2" ry="7.9"/>
	<path fill="#F6D4CF" stroke="#000000" stroke-miterlimit="10" d="M69,144c0,0,10.7-1.3,15.3,4.8"/>
</g>
</svg>
