<?xml version="1.0" encoding="utf-8"?>
<!-- Generator: Adobe Illustrator 18.0.0, SVG Export Plug-In . SVG Version: 6.00 Build 0)  -->
<!DOCTYPE svg PUBLIC "-//W3C//DTD SVG 1.1//EN" "http://www.w3.org/Graphics/SVG/1.1/DTD/svg11.dtd">
<svg version="1.1" xmlns="http://www.w3.org/2000/svg" xmlns:xlink="http://www.w3.org/1999/xlink" x="0px" y="0px"
	 viewBox="72 0 936 936" enable-background="new 72 0 936 936" xml:space="preserve">
<g id="Layer_1">
	<g id="Layer_1_1_">
		<rect x="72" y="0" fill="#6FCEE9" width="936" height="936"/>
	</g>
	<g id="Layer_2">
		<path fill="#F6D4CF" stroke="#000000" stroke-miterlimit="10" d="M545.6,193.3c0,0,20.6,0.9,32.3-13.6c0,0-2.8,7.5,9.4,13.6
			c12.6,6.1,49.6,2.3,58-6.6c8.4-8.9-57.1-66.5-57.1-66.5l-60.4,51.9l17.8,27.6"/>
		<path fill="#F6D4CF" stroke="#000000" stroke-miterlimit="10" d="M540,198.9l32.8,7c0,0,20.1-22,42.6-26.2c0,0,18.3,30-57.6,78.6
			c0,0-35.6-4.7-33.7-13.1c0,0-9.4-25.3,2.8-36C540,198.9,540,198.9,540,198.9z"/>
		<path fill="#F6D4CF" stroke="#000000" stroke-miterlimit="10" d="M985.5,0L764.6,79.6c0,0-156.8-10.3-200.3-18.7
			c0,0-9.4,0-19.2,4.7c-6.1,2.8-12.2,7-16.4,14c0,0-8.4,14.5-18.7,33.2c-16.4,28.5-37.9,66.5-41.7,74.9
			c-6.6,13.6,6.6,90.8,8.4,102.5c1.9,11.7,16.8,47.3,20.1,50.5c3.3,3.3,6.6,8.4,25.3-8.4c0,0,0.5-7.5,0.9-15.4
			c0.5-7.5,0.9-15,0.9-16.4c0-3.3,0.9-6.1,0.9-10.3c0-4.7-1.4-11.2-8-22c0,0,15-40.2,10.3-59c0,0,30.4-20.1,35.6-48.7
			c0,0,25.3-3.3,37-10.3c0,0,23.4,35.6,18.7,47.3c-5.1,11.7-18.7,30.4-35.6,42.1c-16.8,11.7-35.6,25.3-43.1,40.2
			c-7.5,15-32.8,64.1,0,64.1c0,0,4.2,6.6,34.6-20.1c0,0,57.1-38.8,62.2-45.4s52.4-42.1,72.5-48.7c20.1-6.6,68.8-18.7,72.5-45.4
			c0,0,13.6-16.8,68.8-20.1c55.7-3.3,55.7-3.3,55.7-3.3l101.6-10.3V0H985.5z"/>
		<path fill="#F6D4CF" stroke="#000000" stroke-miterlimit="10" d="M545.6,65.5c0,0-37-9.4-35.1,46.8
			C510.5,112.8,537.7,68.3,545.6,65.5z"/>
		<path fill="#F6D4CF" stroke="#000000" stroke-miterlimit="10" d="M72,673.9c0,0,234.9-3.3,277.1-62.2c0,0,28.5-16.8,85.6,0
			c0,0,37,6.6,117.9-15c0,0,52.4-1.9,53.8,28.5c1.9,30.4-107.6,31.8-107.6,31.8s-3.3,22,94.1,16.8c0,0,31.8-13.6,31.8-18.7
			s-22-48.7-18.7-59c3.3-10.3,3.3-23.4,18.7-22c15.4,1.4,20.1,37,37,70.7c0,0,6.6,81,0,90.8c-6.6,10.3-129.2,57.1-141.3,57.1
			c-12.2,0-170.4-30.4-195.6-27.1c-25.3,3.3-149.8,10.3-253.7,52.4V673.9H72z"/>
		<path fill="#F6D4CF" stroke="#000000" stroke-miterlimit="10" d="M662.1,645.4l18.7-18.7c0,0-6.6-75.8,38.8-68.8
			c0,0,3.3,20.1,0,87.5c0,0-33.7,70.7-37,75.8c-3.3,5.1-17.3,0-17.3,0L662.1,645.4z"/>
		<path fill="#F6D4CF" stroke="#000000" stroke-miterlimit="10" d="M720.2,625.2c0,0,61.3-26.7,58,0L698.7,688l20.6-42.6
			L720.2,625.2z"/>
		<path fill="#F6D4CF" stroke="#000000" stroke-miterlimit="10" d="M520.8,793.3c0,0,92.7-35.6,96.9-45.4c4.2-10.3,15.9-44,7.5-92.7
			c0,0-32.3-20.6-37.9-42.1c-5.6-21.5,0-11.2,0-11.2s-37.9-15-12.6,48.7c0,0,16.8,37.9,22,37.4s-12.2-10.8-22,29.5l-29,5.6"/>
	</g>
</g>
<g id="Layer_2_1_">
	<path fill="#FEBE40" stroke="#000000" stroke-miterlimit="10" d="M552.6,468c0,0-0.5,14-12.6,7v22l-6.6,2.3l3.7,4.2l-3.7,8.9l3.7,8
		l-3.7,7l2.8,3.7l-2.8,8.4v6.6v8.9l-12.6,15l-13.1-12.6V475c0,0-8.9,1.9-14-7L552.6,468L552.6,468z"/>
	<path fill="#FEBE40" stroke="#000000" stroke-miterlimit="10" d="M555.4,394.5H496c-3.7,0-7,3.3-7,7v59c0,4.2,3.3,7.5,7.5,7.5h56.2
		c5.6,0,10.3-4.7,10.3-10.3v-56.2C562.9,397.8,559.7,394.5,555.4,394.5z M522.7,423.1c-6.1,0-10.8-4.2-10.8-8.9
		c0-5.1,4.7-8.9,10.8-8.9c6.1,0,10.8,4.2,10.8,8.9C533.4,418.9,528.8,423.1,522.7,423.1z"/>
	<path fill="none" stroke="#000000" stroke-miterlimit="10" d="M523.2,316.8"/>
	<ellipse fill="none" stroke="#000000" stroke-miterlimit="10" cx="524.1" cy="365.5" rx="3.3" ry="39.3"/>
	<ellipse fill="none" stroke="#000000" stroke-miterlimit="10" cx="522.2" cy="370.7" rx="5.6" ry="37"/>
	<path fill="#F6D4CF" stroke="#000000" stroke-miterlimit="10" d="M394.9,673.9c0,0,50.1-6.1,71.6,22.5"/>
</g>
</svg>
