<?xml version="1.0" encoding="utf-8"?>
<!-- Generator: Adobe Illustrator 17.1.0, SVG Export Plug-In . SVG Version: 6.00 Build 0)  -->
<!DOCTYPE svg PUBLIC "-//W3C//DTD SVG 1.1//EN" "http://www.w3.org/Graphics/SVG/1.1/DTD/svg11.dtd">
<svg version="1.1" xmlns="http://www.w3.org/2000/svg" xmlns:xlink="http://www.w3.org/1999/xlink" x="0px" y="0px"
	 viewBox="0 0 200 200" enable-background="new 0 0 200 200" xml:space="preserve">
<g id="Layer_1">
	<rect fill="#6ECEE9" width="200" height="200"/>
	<path fill="none" d="M27.8,161.4c1.2,0.4,2.5-0.2,3.7-0.9c2.9-1.5,5.8-3.1,8.4-5.2c3.7-3,6.6-7,9.2-11"/>
	<path fill="none" d="M41.4,169.6c-0.6-1.8,0.5-3.7,1.9-4.9c1.3-1.3,3-2.2,4.2-3.7c1-1.3,1.6-2.8,2.5-4.1c0.7-1,1.7-1.9,2.5-2.9
		c1.3-1.7,2.1-3.8,2.8-5.8c1.1-3,2.2-6.1,2.5-9.3"/>
	<path fill="none" d="M59.7,176.4c-0.5-5.7,0.2-11.6,2-17.1c0.3-0.8,0.6-1.6,0.8-2.4c0.3-0.8,0.6-1.6,0.8-2.3
		c0.6-1.8,1.3-3.9,0.4-5.6"/>
</g>
<g id="Layer_3">
	<polygon fill="#B6E3F1" stroke="#231F20" stroke-miterlimit="10" points="130.7,181 161.4,153.7 178.9,148.5 178.9,163.2 	"/>
	<polygon fill="#B6E3F1" stroke="#000000" stroke-miterlimit="10" points="160.4,153.7 137.5,148.5 149,145.1 177.9,148.5 	"/>
	<polygon fill="#B6E3F1" stroke="#000000" stroke-miterlimit="10" points="137.5,148.5 109.5,169.1 148.5,157.2 148.5,151 	"/>
	<polygon fill="#B6E3F1" stroke="#000000" stroke-miterlimit="10" points="148.5,151 148.5,157.2 156.3,158.8 160.4,153.7 	"/>
	<polygon fill="#B6E3F1" stroke="#231F20" stroke-miterlimit="10" points="129,181.3 107,169.4 148.5,157 156.3,158.6 	"/>
	<ellipse fill="#F4FBFD" stroke="#231F20" stroke-miterlimit="10" cx="82.5" cy="158.2" rx="3.2" ry="3.3"/>
	<ellipse fill="#F4FBFD" stroke="#231F20" stroke-miterlimit="10" cx="97.2" cy="161.5" rx="5.3" ry="5.3"/>
	<ellipse fill="#F4FBFD" stroke="#231F20" stroke-miterlimit="10" cx="105.6" cy="145.1" rx="7.9" ry="7.3"/>
</g>
<g id="Layer_2">
	<path fill="#DB3B53" stroke="#000000" stroke-miterlimit="10" d="M122.6,25.9L122.6,25.9c-1.8-1-4-0.3-5,1.5l-53.9,102
		c-0.9,1.8-0.3,4,1.5,4.9l0.1,0c1.8,0.9,4,0.3,4.9-1.5l53.9-102C125,29,124.4,26.8,122.6,25.9z"/>
	<path fill="#B6E3F1" stroke="#000000" stroke-miterlimit="10" d="M18,154.7c0,0,14.2-1.7,21.5-13.7S52,124,62.5,124.2
		c10.4,0.3,18.9,17.5,14.2,27.6c-4.7,10.1-3.2,22.6-1.3,25.2S42.9,193.4,18,154.7z"/>
	<path d="M23.9,162.7c0,0,7.8-1,11-4.2s-4,3.9-4.3,11.1C30.6,169.6,27.7,167.7,23.9,162.7z"/>
	<path d="M40.4,176.4c-0.3-0.1,2.4-7.2,2.4-9.3c0-2.2,5.6,10.3,3.5,11.9L40.4,176.4z"/>
	<path d="M57.7,181.5l4.2-8.5c0,0,0.8,9.1,5.1,8L57.7,181.5z"/>
	<path fill="#DB3B53" stroke="#231F20" stroke-miterlimit="10" d="M157.7,149.4h6.8l30.4-19.7c0,0,0.7-9.2-10.3-7.5l-22.6,21.6
		C162.2,143.8,155,145.1,157.7,149.4z"/>
	<path fill="#DB3B53" stroke="#000000" stroke-miterlimit="10" d="M43.6,134.6c0,0,13.6,15.1,34,13.9c0,0-1.1,3.4-1.5,4.4
		c-0.4,1-23,1-35.8-14.1L43.6,134.6z"/>
</g>
</svg>
