<?xml version="1.0" encoding="utf-8"?>
<!-- Generator: Adobe Illustrator 18.0.0, SVG Export Plug-In . SVG Version: 6.00 Build 0)  -->
<!DOCTYPE svg PUBLIC "-//W3C//DTD SVG 1.1//EN" "http://www.w3.org/Graphics/SVG/1.1/DTD/svg11.dtd">
<svg version="1.1" xmlns="http://www.w3.org/2000/svg" xmlns:xlink="http://www.w3.org/1999/xlink" x="0px" y="0px"
	 viewBox="72 0 936 936" enable-background="new 72 0 936 936" xml:space="preserve">
<g id="Layer_1">
	<g id="Layer_1_1_">
		<rect x="72" y="0" fill="#6ECEE9" stroke="#000000" stroke-miterlimit="10" width="936" height="936"/>
	</g>
	<path fill="#6ECEE9" stroke="#000000" stroke-miterlimit="10" d="M342,848.5l19.7-36.8c0,0,6.6,35.6,15.2,36.5"/>
	<path fill="#6ECEE9" stroke="#000000" stroke-miterlimit="10" d="M335.8,848.5c0,0,32.2-18.4,26.9-53.8c-5.3-35.4,0,0,0,0
		l26.7,51.4"/>
</g>
<g id="Layer_2_1_">
	<g id="Layer_3">
		<polygon fill="#B6E3F1" stroke="#231F20" stroke-miterlimit="10" points="683.7,847.1 827.4,719.3 909.3,695 909.3,763.8 		"/>
		<polygon fill="#B6E3F1" stroke="#000000" stroke-miterlimit="10" points="822.7,719.3 715.5,695 769.3,679.1 904.6,695 		"/>
		<polygon fill="#B6E3F1" stroke="#000000" stroke-miterlimit="10" points="715.5,695 584.5,791.4 767,735.7 767,706.7 		"/>
		<polygon fill="#B6E3F1" stroke="#000000" stroke-miterlimit="10" points="767,706.7 767,735.7 803.5,743.2 822.7,719.3 		"/>
		<polygon fill="#B6E3F1" stroke="#231F20" stroke-miterlimit="10" points="675.7,848.5 572.8,792.8 767,734.8 803.5,742.2 		"/>
		<ellipse fill="#F4FBFD" stroke="#231F20" stroke-miterlimit="10" cx="458.1" cy="740.4" rx="15" ry="15.4"/>
		<ellipse fill="#F4FBFD" stroke="#231F20" stroke-miterlimit="10" cx="526.9" cy="755.8" rx="24.8" ry="24.8"/>
		<ellipse fill="#F4FBFD" stroke="#231F20" stroke-miterlimit="10" cx="566.2" cy="679.1" rx="37" ry="34.2"/>
	</g>
</g>
<g id="Layer_5">
	<path fill="#FEBE40" stroke="#000000" stroke-miterlimit="10" d="M645.8,121.2L645.8,121.2c-8.4-4.7-18.7-1.4-23.4,7L370.1,605.6
		c-4.2,8.4-1.4,18.7,7,22.9h0.5c8.4,4.2,18.7,1.4,22.9-7l252.3-477.4C657,135.7,654.2,125.4,645.8,121.2z"/>
</g>
<g id="Layer_3_1_">
	<g id="Layer_2">
		<path fill="#B6E3F1" stroke="#000000" stroke-width="2" stroke-miterlimit="10" d="M156.2,724c0,0,66.5-8,100.6-64.1
			s58.5-79.6,107.6-78.6c48.7,1.4,88.5,81.9,66.5,129.2c-22,47.3-15,105.8-6.1,117.9S272.8,905.1,156.2,724z"/>
	</g>
</g>
<g id="Layer_6">
	<path fill="#6ECEE9" d="M182.9,762.4c0,0,36.5-4.7,51.5-19.7c15-15-18.7,18.3-20.1,51.9C214.2,794.7,200.6,785.8,182.9,762.4z"/>
	<path fill="#6ECEE9" d="M243.9,815.5c0,0,38.7-24.2,46.1-34.8c0,0-14.9,44.3-6.4,55.2C283.6,835.8,249.8,846.2,243.9,815.5z"/>
</g>
<g id="Layer_4">
	<path fill="#FEBE40" stroke="#231F20" stroke-miterlimit="10" d="M810,699.2h31.8L984.1,607c0,0,3.3-43.1-48.2-35.1L830.2,673
		C831.1,673,797.4,679.1,810,699.2z"/>
	<path fill="#FEBE40" stroke="#000000" stroke-miterlimit="10" d="M276,629.9c0,0,63.6,70.7,159.1,65.1c0,0-5.1,15.9-7,20.6
		s-107.6,4.7-167.5-66L276,629.9z"/>
	<path fill="none" stroke="#000000" stroke-width="2" stroke-miterlimit="10" d="M243.9,815.5c0,0,46.1-31.5,46.1-34.8
		c0-3.3,0,0,0,0s-15.5,47.7-6.4,55.2c9.1,7.5,0,0,0,0"/>
	<path fill="#6ECEE9" stroke="#000000" stroke-width="2" stroke-miterlimit="10" d="M182.9,762.4c0,0,45.1-9,54.5-22.1
		c0,0-28.9,40.4-23.1,54.4"/>
	<path fill="#6ECEE9" d="M335.8,848.5c0,0,33.5-20.4,26.9-53.8l26.7,51.4C389.4,846.1,364.9,873.6,335.8,848.5z"/>
</g>
<g id="Layer_7">
	<path fill="none" stroke="#000000" stroke-width="2" stroke-miterlimit="10" d="M335.4,848.4c4.1-0.9,7.3-4,10-7.2
		c8.2-9.4,14.7-20.3,19-32c1.5-4,2.4-9.3-0.8-12.1c0.6-0.9,1.8,0.2,2.3,1.2c7,16.2,15.6,31.8,25.7,46.3"/>
</g>
</svg>
