<?xml version="1.0" encoding="utf-8"?>
<!-- Generator: Adobe Illustrator 18.0.0, SVG Export Plug-In . SVG Version: 6.00 Build 0)  -->
<!DOCTYPE svg PUBLIC "-//W3C//DTD SVG 1.1//EN" "http://www.w3.org/Graphics/SVG/1.1/DTD/svg11.dtd">
<svg version="1.1" id="Layer_1" xmlns="http://www.w3.org/2000/svg" xmlns:xlink="http://www.w3.org/1999/xlink" x="0px" y="0px"
	 viewBox="0 0 41 41" enable-background="new 0 0 41 41" xml:space="preserve">
<path fill="#6ECEE9" stroke="#FFFFFF" stroke-miterlimit="10" d="M8.1,0.5c0,0-1.4,0.1-2.5,1.1S1.1,5.6,0.8,6.3S0.5,9.2,0.5,9.8
	c0,0.6,2.4,5.9,2.6,6.2s11.2,17.9,27.7,24.5c0,0,4.5,0.5,6.8-3.2l2.9-3.4c0,0,0.2-2.7-0.9-2.9c-1.1-0.2-8.1-5.5-8.1-5.5
	S30,24,24.9,27.7c0,0-9.6-7-11.8-11.4c0,0,2.4-4,2.6-5.2c0.2-1.2-0.8-2.5-0.8-2.5L9.7,0.9C9.7,0.9,9.1,0.8,8.1,0.5z"/>
</svg>
